<mxfile host="Electron" agent="Mozilla/5.0 (X11; Linux x86_64) AppleWebKit/537.36 (KHTML, like Gecko) draw.io/26.0.9 Chrome/128.0.6613.186 Electron/32.2.5 Safari/537.36" version="26.0.9">
  <diagram name="Page-1" id="kDfRpo1CxUzrUa308PZo">
    <mxGraphModel dx="811" dy="528" grid="0" gridSize="10" guides="1" tooltips="1" connect="1" arrows="1" fold="1" page="0" pageScale="1" pageWidth="1100" pageHeight="850" math="0" shadow="0">
      <root>
        <mxCell id="0" />
        <mxCell id="1" parent="0" />
        <mxCell id="kGD7HWYmtsc1gqsiC4Fo-10" value="" style="group;fontSize=7;fontStyle=1" parent="1" vertex="1" connectable="0">
          <mxGeometry x="95" y="70" width="235" height="140" as="geometry" />
        </mxCell>
        <mxCell id="WQn_Q9u86yd2wtRNVrf2-4" value="" style="rounded=0;whiteSpace=wrap;html=1;direction=south;fontSize=7;fontStyle=1" parent="kGD7HWYmtsc1gqsiC4Fo-10" vertex="1">
          <mxGeometry x="15" y="10" width="30" height="60" as="geometry" />
        </mxCell>
        <mxCell id="WQn_Q9u86yd2wtRNVrf2-5" value="" style="triangle;whiteSpace=wrap;html=1;fontSize=7;fontStyle=1" parent="kGD7HWYmtsc1gqsiC4Fo-10" vertex="1">
          <mxGeometry x="15" y="50" width="10" height="20" as="geometry" />
        </mxCell>
        <mxCell id="WQn_Q9u86yd2wtRNVrf2-7" value="" style="endArrow=classic;html=1;rounded=0;entryX=0.25;entryY=1;entryDx=0;entryDy=0;exitX=0.25;exitY=0;exitDx=0;exitDy=0;fontSize=7;fontStyle=1" parent="kGD7HWYmtsc1gqsiC4Fo-10" source="WQn_Q9u86yd2wtRNVrf2-4" target="WQn_Q9u86yd2wtRNVrf2-11" edge="1">
          <mxGeometry width="50" height="50" relative="1" as="geometry">
            <mxPoint x="45" y="24.5" as="sourcePoint" />
            <mxPoint x="195" y="24.5" as="targetPoint" />
            <Array as="points">
              <mxPoint x="65" y="24.5" />
            </Array>
          </mxGeometry>
        </mxCell>
        <mxCell id="WQn_Q9u86yd2wtRNVrf2-14" value="pc" style="text;html=1;align=center;verticalAlign=middle;whiteSpace=wrap;rounded=0;fontSize=7;fontStyle=1" parent="kGD7HWYmtsc1gqsiC4Fo-10" vertex="1">
          <mxGeometry y="70" width="60" height="30" as="geometry" />
        </mxCell>
        <mxCell id="WQn_Q9u86yd2wtRNVrf2-15" value="pc_next" style="text;html=1;align=center;verticalAlign=middle;whiteSpace=wrap;rounded=0;fontSize=7;fontStyle=1" parent="kGD7HWYmtsc1gqsiC4Fo-10" vertex="1">
          <mxGeometry x="45" y="20" width="60" height="30" as="geometry" />
        </mxCell>
        <mxCell id="kGD7HWYmtsc1gqsiC4Fo-1" value="Instruction Memory" style="text;html=1;align=center;verticalAlign=middle;whiteSpace=wrap;rounded=0;fontSize=7;fontStyle=1" parent="kGD7HWYmtsc1gqsiC4Fo-10" vertex="1">
          <mxGeometry x="90" y="110" width="60" height="30" as="geometry" />
        </mxCell>
        <mxCell id="kGD7HWYmtsc1gqsiC4Fo-2" value="" style="endArrow=classic;html=1;rounded=0;exitX=0.351;exitY=-0.034;exitDx=0;exitDy=0;exitPerimeter=0;fontSize=7;fontStyle=1" parent="kGD7HWYmtsc1gqsiC4Fo-10" source="WQn_Q9u86yd2wtRNVrf2-11" edge="1">
          <mxGeometry width="50" height="50" relative="1" as="geometry">
            <mxPoint x="245" y="30" as="sourcePoint" />
            <mxPoint x="205" y="35" as="targetPoint" />
          </mxGeometry>
        </mxCell>
        <mxCell id="kGD7HWYmtsc1gqsiC4Fo-3" value="" style="endArrow=none;html=1;rounded=0;fontSize=7;fontStyle=1" parent="kGD7HWYmtsc1gqsiC4Fo-10" edge="1">
          <mxGeometry width="50" height="50" relative="1" as="geometry">
            <mxPoint x="165" y="40" as="sourcePoint" />
            <mxPoint x="185" y="20" as="targetPoint" />
          </mxGeometry>
        </mxCell>
        <mxCell id="kGD7HWYmtsc1gqsiC4Fo-4" value="machine code" style="text;align=center;verticalAlign=middle;whiteSpace=wrap;rounded=0;fontSize=7;fontStyle=1" parent="kGD7HWYmtsc1gqsiC4Fo-10" vertex="1">
          <mxGeometry x="150" y="30" width="60" height="30" as="geometry" />
        </mxCell>
        <mxCell id="kGD7HWYmtsc1gqsiC4Fo-7" value="" style="group;fontSize=7;fontStyle=1" parent="kGD7HWYmtsc1gqsiC4Fo-10" vertex="1" connectable="0">
          <mxGeometry x="105" width="50" height="100" as="geometry" />
        </mxCell>
        <mxCell id="WQn_Q9u86yd2wtRNVrf2-11" value="" style="rounded=0;whiteSpace=wrap;html=1;direction=south;fontSize=7;fontStyle=1" parent="kGD7HWYmtsc1gqsiC4Fo-7" vertex="1">
          <mxGeometry width="50" height="100" as="geometry" />
        </mxCell>
        <mxCell id="WQn_Q9u86yd2wtRNVrf2-12" value="" style="triangle;whiteSpace=wrap;html=1;fontSize=7;fontStyle=1" parent="kGD7HWYmtsc1gqsiC4Fo-7" vertex="1">
          <mxGeometry y="75" width="10" height="20" as="geometry" />
        </mxCell>
        <mxCell id="kGD7HWYmtsc1gqsiC4Fo-23" value="32" style="text;html=1;align=center;verticalAlign=middle;whiteSpace=wrap;rounded=0;fontSize=7;fontStyle=1" parent="kGD7HWYmtsc1gqsiC4Fo-10" vertex="1">
          <mxGeometry x="150" width="60" height="30" as="geometry" />
        </mxCell>
        <mxCell id="PMF_o5RqIMrdFD3GeigL-66" value="" style="endArrow=classic;html=1;rounded=0;strokeWidth=1;startSize=6;opacity=70;jumpSize=1;strokeColor=default;shadow=1;fontSize=7;fontStyle=1;exitX=0.5;exitY=0;exitDx=0;exitDy=0;" parent="kGD7HWYmtsc1gqsiC4Fo-10" source="udzb2MHEnxLIqmoWjG_3-24" edge="1">
          <mxGeometry width="50" height="50" relative="1" as="geometry">
            <mxPoint x="987" y="131" as="sourcePoint" />
            <mxPoint x="235" y="80" as="targetPoint" />
            <Array as="points">
              <mxPoint x="237" y="154" />
            </Array>
          </mxGeometry>
        </mxCell>
        <mxCell id="kGD7HWYmtsc1gqsiC4Fo-11" value="" style="rounded=0;whiteSpace=wrap;html=1;direction=south;fontSize=7;fontStyle=1" parent="1" vertex="1">
          <mxGeometry x="480" y="40" width="50" height="130" as="geometry" />
        </mxCell>
        <mxCell id="kGD7HWYmtsc1gqsiC4Fo-12" value="" style="triangle;whiteSpace=wrap;html=1;fontSize=7;fontStyle=1" parent="1" vertex="1">
          <mxGeometry x="480" y="160" width="10" height="10" as="geometry" />
        </mxCell>
        <mxCell id="kGD7HWYmtsc1gqsiC4Fo-13" value="" style="rounded=0;whiteSpace=wrap;html=1;direction=south;fontSize=7;fontStyle=1" parent="1" vertex="1">
          <mxGeometry x="480" y="300" width="50" height="120" as="geometry" />
        </mxCell>
        <mxCell id="kGD7HWYmtsc1gqsiC4Fo-14" value="" style="triangle;whiteSpace=wrap;html=1;fontSize=7;fontStyle=1" parent="1" vertex="1">
          <mxGeometry x="480" y="410" width="10" height="10" as="geometry" />
        </mxCell>
        <mxCell id="kGD7HWYmtsc1gqsiC4Fo-15" style="edgeStyle=orthogonalEdgeStyle;rounded=0;orthogonalLoop=1;jettySize=auto;html=1;exitX=0.5;exitY=0;exitDx=0;exitDy=0;entryX=0.5;entryY=1;entryDx=0;entryDy=0;fontSize=7;fontStyle=1;" parent="1" source="kGD7HWYmtsc1gqsiC4Fo-4" target="kGD7HWYmtsc1gqsiC4Fo-13" edge="1">
          <mxGeometry relative="1" as="geometry">
            <Array as="points">
              <mxPoint x="275" y="105" />
              <mxPoint x="300" y="105" />
              <mxPoint x="300" y="360" />
            </Array>
          </mxGeometry>
        </mxCell>
        <mxCell id="kGD7HWYmtsc1gqsiC4Fo-16" style="edgeStyle=orthogonalEdgeStyle;rounded=0;orthogonalLoop=1;jettySize=auto;html=1;exitX=0.5;exitY=0;exitDx=0;exitDy=0;entryX=0.076;entryY=1.018;entryDx=0;entryDy=0;entryPerimeter=0;fontSize=7;fontStyle=1" parent="1" source="kGD7HWYmtsc1gqsiC4Fo-4" target="kGD7HWYmtsc1gqsiC4Fo-11" edge="1">
          <mxGeometry relative="1" as="geometry">
            <Array as="points">
              <mxPoint x="300" y="105" />
              <mxPoint x="300" y="50" />
            </Array>
          </mxGeometry>
        </mxCell>
        <mxCell id="kGD7HWYmtsc1gqsiC4Fo-17" value="fpu registerfile" style="text;html=1;align=center;verticalAlign=middle;whiteSpace=wrap;rounded=0;fontSize=7;fontStyle=1" parent="1" vertex="1">
          <mxGeometry x="474" y="160" width="60" height="30" as="geometry" />
        </mxCell>
        <mxCell id="kGD7HWYmtsc1gqsiC4Fo-18" value="Integer registerfile" style="text;html=1;align=center;verticalAlign=middle;whiteSpace=wrap;rounded=0;fontSize=7;fontStyle=1" parent="1" vertex="1">
          <mxGeometry x="475" y="420" width="60" height="30" as="geometry" />
        </mxCell>
        <mxCell id="kGD7HWYmtsc1gqsiC4Fo-19" value="" style="endArrow=classic;html=1;rounded=0;strokeWidth=1;startSize=6;opacity=70;jumpSize=1;strokeColor=default;shadow=1;fontSize=7;fontStyle=1" parent="1" edge="1">
          <mxGeometry width="50" height="50" relative="1" as="geometry">
            <mxPoint x="300" y="70" as="sourcePoint" />
            <mxPoint x="480" y="70" as="targetPoint" />
          </mxGeometry>
        </mxCell>
        <mxCell id="kGD7HWYmtsc1gqsiC4Fo-20" value="" style="endArrow=classic;html=1;rounded=0;entryX=0.531;entryY=0.981;entryDx=0;entryDy=0;entryPerimeter=0;fontSize=7;fontStyle=1" parent="1" target="kGD7HWYmtsc1gqsiC4Fo-11" edge="1">
          <mxGeometry width="50" height="50" relative="1" as="geometry">
            <mxPoint x="300" y="110" as="sourcePoint" />
            <mxPoint x="470" y="90" as="targetPoint" />
          </mxGeometry>
        </mxCell>
        <mxCell id="kGD7HWYmtsc1gqsiC4Fo-22" value="" style="endArrow=classic;html=1;rounded=0;strokeWidth=1;startSize=6;opacity=70;jumpSize=1;strokeColor=default;shadow=1;fontSize=7;fontStyle=1" parent="1" edge="1">
          <mxGeometry width="50" height="50" relative="1" as="geometry">
            <mxPoint x="300" y="90" as="sourcePoint" />
            <mxPoint x="480" y="90" as="targetPoint" />
          </mxGeometry>
        </mxCell>
        <mxCell id="kGD7HWYmtsc1gqsiC4Fo-25" value="machine_code[7:11]=rd" style="text;html=1;align=center;verticalAlign=middle;whiteSpace=wrap;rounded=0;fontSize=7;fontStyle=1" parent="1" vertex="1">
          <mxGeometry x="385" y="90" width="60" height="30" as="geometry" />
        </mxCell>
        <mxCell id="kGD7HWYmtsc1gqsiC4Fo-26" value="machine_code[27:31]=rs3" style="text;html=1;align=center;verticalAlign=middle;whiteSpace=wrap;rounded=0;fontSize=7;fontStyle=1" parent="1" vertex="1">
          <mxGeometry x="385" y="70" width="60" height="30" as="geometry" />
        </mxCell>
        <mxCell id="kGD7HWYmtsc1gqsiC4Fo-27" value="machine_code[20:24]=rs2" style="text;html=1;align=center;verticalAlign=middle;whiteSpace=wrap;rounded=0;fontSize=7;fontStyle=1" parent="1" vertex="1">
          <mxGeometry x="385" y="50" width="60" height="30" as="geometry" />
        </mxCell>
        <mxCell id="kGD7HWYmtsc1gqsiC4Fo-28" value="machinecode[15:19]=rs1" style="text;html=1;align=center;verticalAlign=middle;whiteSpace=wrap;rounded=0;fontSize=7;fontStyle=1" parent="1" vertex="1">
          <mxGeometry x="385" y="30" width="60" height="30" as="geometry" />
        </mxCell>
        <mxCell id="kGD7HWYmtsc1gqsiC4Fo-32" value="" style="endArrow=none;html=1;rounded=0;fontSize=7;fontStyle=1" parent="1" edge="1">
          <mxGeometry width="50" height="50" relative="1" as="geometry">
            <mxPoint x="455" y="80" as="sourcePoint" />
            <mxPoint x="470" y="60" as="targetPoint" />
          </mxGeometry>
        </mxCell>
        <mxCell id="kGD7HWYmtsc1gqsiC4Fo-33" value="" style="endArrow=none;html=1;rounded=0;fontSize=7;fontStyle=1" parent="1" edge="1">
          <mxGeometry width="50" height="50" relative="1" as="geometry">
            <mxPoint x="455" y="60" as="sourcePoint" />
            <mxPoint x="470" y="40" as="targetPoint" />
          </mxGeometry>
        </mxCell>
        <mxCell id="kGD7HWYmtsc1gqsiC4Fo-35" value="5" style="text;html=1;align=center;verticalAlign=middle;whiteSpace=wrap;rounded=0;fontSize=7;fontStyle=1" parent="1" vertex="1">
          <mxGeometry x="455" y="20" width="20" height="30" as="geometry" />
        </mxCell>
        <mxCell id="kGD7HWYmtsc1gqsiC4Fo-36" value="5" style="text;html=1;align=center;verticalAlign=middle;whiteSpace=wrap;rounded=0;fontSize=7;fontStyle=1" parent="1" vertex="1">
          <mxGeometry x="455" y="50" width="20" height="20" as="geometry" />
        </mxCell>
        <mxCell id="kGD7HWYmtsc1gqsiC4Fo-37" value="5" style="text;html=1;align=center;verticalAlign=middle;whiteSpace=wrap;rounded=0;fontSize=7;fontStyle=1" parent="1" vertex="1">
          <mxGeometry x="455" y="70" width="20" height="20" as="geometry" />
        </mxCell>
        <mxCell id="kGD7HWYmtsc1gqsiC4Fo-38" value="5" style="text;html=1;align=center;verticalAlign=middle;whiteSpace=wrap;rounded=0;fontSize=7;fontStyle=1" parent="1" vertex="1">
          <mxGeometry x="455" y="90" width="20" height="20" as="geometry" />
        </mxCell>
        <mxCell id="kGD7HWYmtsc1gqsiC4Fo-40" value="" style="endArrow=classic;html=1;rounded=0;strokeWidth=1;startSize=6;opacity=70;jumpSize=1;strokeColor=default;shadow=1;fontSize=7;fontStyle=1" parent="1" edge="1">
          <mxGeometry width="50" height="50" relative="1" as="geometry">
            <mxPoint x="370" y="130" as="sourcePoint" />
            <mxPoint x="480" y="130" as="targetPoint" />
          </mxGeometry>
        </mxCell>
        <mxCell id="kGD7HWYmtsc1gqsiC4Fo-45" value="" style="endArrow=none;html=1;rounded=0;fontSize=7;fontStyle=1" parent="1" edge="1">
          <mxGeometry width="50" height="50" relative="1" as="geometry">
            <mxPoint x="454" y="160" as="sourcePoint" />
            <mxPoint x="474" y="140" as="targetPoint" />
          </mxGeometry>
        </mxCell>
        <mxCell id="kGD7HWYmtsc1gqsiC4Fo-46" value="regesterfile_enable" style="text;html=1;align=center;verticalAlign=middle;whiteSpace=wrap;rounded=0;fontSize=7;fontStyle=1" parent="1" vertex="1">
          <mxGeometry x="405" y="110" width="20" height="30" as="geometry" />
        </mxCell>
        <mxCell id="kGD7HWYmtsc1gqsiC4Fo-49" value="&lt;font&gt;32&lt;/font&gt;" style="text;html=1;align=center;verticalAlign=middle;whiteSpace=wrap;rounded=0;fontSize=7;fontStyle=1" parent="1" vertex="1">
          <mxGeometry x="455" y="135" width="20" height="10" as="geometry" />
        </mxCell>
        <mxCell id="kGD7HWYmtsc1gqsiC4Fo-50" value="" style="endArrow=none;html=1;rounded=0;fontSize=7;fontStyle=1" parent="1" edge="1">
          <mxGeometry width="50" height="50" relative="1" as="geometry">
            <mxPoint x="455" y="100" as="sourcePoint" />
            <mxPoint x="475" y="80" as="targetPoint" />
          </mxGeometry>
        </mxCell>
        <mxCell id="kGD7HWYmtsc1gqsiC4Fo-51" value="" style="endArrow=none;html=1;rounded=0;fontSize=7;fontStyle=1" parent="1" edge="1">
          <mxGeometry width="50" height="50" relative="1" as="geometry">
            <mxPoint x="450" y="120" as="sourcePoint" />
            <mxPoint x="470" y="100" as="targetPoint" />
          </mxGeometry>
        </mxCell>
        <mxCell id="kGD7HWYmtsc1gqsiC4Fo-52" value="" style="endArrow=classic;html=1;rounded=0;strokeWidth=1;startSize=6;opacity=70;jumpSize=1;strokeColor=default;shadow=1;fontSize=7;fontStyle=1" parent="1" edge="1">
          <mxGeometry width="50" height="50" relative="1" as="geometry">
            <mxPoint x="300" y="320" as="sourcePoint" />
            <mxPoint x="480" y="319.51" as="targetPoint" />
          </mxGeometry>
        </mxCell>
        <mxCell id="kGD7HWYmtsc1gqsiC4Fo-54" value="" style="endArrow=classic;html=1;rounded=0;strokeWidth=1;startSize=6;opacity=70;jumpSize=1;strokeColor=default;shadow=1;fontSize=7;fontStyle=1" parent="1" edge="1">
          <mxGeometry width="50" height="50" relative="1" as="geometry">
            <mxPoint x="300" y="340" as="sourcePoint" />
            <mxPoint x="480" y="339.51" as="targetPoint" />
          </mxGeometry>
        </mxCell>
        <mxCell id="kGD7HWYmtsc1gqsiC4Fo-58" value="" style="endArrow=none;html=1;rounded=0;fontSize=7;fontStyle=1" parent="1" edge="1">
          <mxGeometry width="50" height="50" relative="1" as="geometry">
            <mxPoint x="455" y="330" as="sourcePoint" />
            <mxPoint x="470" y="310" as="targetPoint" />
          </mxGeometry>
        </mxCell>
        <mxCell id="kGD7HWYmtsc1gqsiC4Fo-60" value="5" style="text;html=1;align=center;verticalAlign=middle;whiteSpace=wrap;rounded=0;fontSize=7;fontStyle=1" parent="1" vertex="1">
          <mxGeometry x="454" y="300" width="20" height="20" as="geometry" />
        </mxCell>
        <mxCell id="kGD7HWYmtsc1gqsiC4Fo-61" value="5" style="text;html=1;align=center;verticalAlign=middle;whiteSpace=wrap;rounded=0;fontSize=7;fontStyle=1" parent="1" vertex="1">
          <mxGeometry x="454" y="320" width="20" height="20" as="geometry" />
        </mxCell>
        <mxCell id="kGD7HWYmtsc1gqsiC4Fo-63" value="" style="endArrow=none;html=1;rounded=0;fontSize=7;fontStyle=1" parent="1" edge="1">
          <mxGeometry width="50" height="50" relative="1" as="geometry">
            <mxPoint x="450" y="350" as="sourcePoint" />
            <mxPoint x="470" y="330" as="targetPoint" />
          </mxGeometry>
        </mxCell>
        <mxCell id="kGD7HWYmtsc1gqsiC4Fo-64" value="machinecode[15:19]=rs1" style="text;html=1;align=center;verticalAlign=middle;whiteSpace=wrap;rounded=0;fontSize=7;fontStyle=1" parent="1" vertex="1">
          <mxGeometry x="385" y="300" width="60" height="30" as="geometry" />
        </mxCell>
        <mxCell id="kGD7HWYmtsc1gqsiC4Fo-65" value="machine_code[20:24]=rs2" style="text;html=1;align=center;verticalAlign=middle;whiteSpace=wrap;rounded=0;fontSize=7;fontStyle=1" parent="1" vertex="1">
          <mxGeometry x="385" y="320" width="60" height="30" as="geometry" />
        </mxCell>
        <mxCell id="kGD7HWYmtsc1gqsiC4Fo-66" value="machine_code[7:11]=rd" style="text;html=1;align=center;verticalAlign=middle;whiteSpace=wrap;rounded=0;fontSize=7;fontStyle=1" parent="1" vertex="1">
          <mxGeometry x="385" y="340" width="60" height="30" as="geometry" />
        </mxCell>
        <mxCell id="kGD7HWYmtsc1gqsiC4Fo-68" value="" style="endArrow=none;html=1;rounded=0;fontSize=7;fontStyle=1" parent="1" edge="1">
          <mxGeometry width="50" height="50" relative="1" as="geometry">
            <mxPoint x="454" y="370" as="sourcePoint" />
            <mxPoint x="474" y="350" as="targetPoint" />
          </mxGeometry>
        </mxCell>
        <mxCell id="kGD7HWYmtsc1gqsiC4Fo-70" value="5" style="text;html=1;align=center;verticalAlign=middle;whiteSpace=wrap;rounded=0;fontSize=7;fontStyle=1" parent="1" vertex="1">
          <mxGeometry x="455" y="340" width="20" height="20" as="geometry" />
        </mxCell>
        <mxCell id="kGD7HWYmtsc1gqsiC4Fo-71" value="" style="endArrow=classic;html=1;rounded=0;strokeWidth=1;startSize=6;opacity=70;jumpSize=1;strokeColor=default;shadow=1;fontSize=7;fontStyle=1" parent="1" edge="1">
          <mxGeometry width="50" height="50" relative="1" as="geometry">
            <mxPoint x="332" y="222" as="sourcePoint" />
            <mxPoint x="480" y="400" as="targetPoint" />
            <Array as="points">
              <mxPoint x="330" y="400" />
            </Array>
          </mxGeometry>
        </mxCell>
        <mxCell id="kGD7HWYmtsc1gqsiC4Fo-72" value="" style="endArrow=classic;html=1;rounded=0;strokeWidth=1;startSize=6;opacity=70;jumpSize=1;strokeColor=default;shadow=1;fontSize=7;fontStyle=1" parent="1" edge="1">
          <mxGeometry width="50" height="50" relative="1" as="geometry">
            <mxPoint x="370" y="380" as="sourcePoint" />
            <mxPoint x="480" y="380" as="targetPoint" />
          </mxGeometry>
        </mxCell>
        <mxCell id="kGD7HWYmtsc1gqsiC4Fo-73" value="rd_data" style="text;html=1;align=center;verticalAlign=middle;whiteSpace=wrap;rounded=0;fontSize=7;fontStyle=1" parent="1" vertex="1">
          <mxGeometry x="424" y="390" width="30" height="10" as="geometry" />
        </mxCell>
        <mxCell id="kGD7HWYmtsc1gqsiC4Fo-74" value="" style="endArrow=none;html=1;rounded=0;fontSize=7;fontStyle=1" parent="1" edge="1">
          <mxGeometry width="50" height="50" relative="1" as="geometry">
            <mxPoint x="454" y="410" as="sourcePoint" />
            <mxPoint x="474" y="390" as="targetPoint" />
          </mxGeometry>
        </mxCell>
        <mxCell id="kGD7HWYmtsc1gqsiC4Fo-75" value="&lt;font&gt;32&lt;/font&gt;" style="text;html=1;align=center;verticalAlign=middle;whiteSpace=wrap;rounded=0;fontSize=7;fontStyle=1" parent="1" vertex="1">
          <mxGeometry x="454" y="385" width="20" height="10" as="geometry" />
        </mxCell>
        <mxCell id="kGD7HWYmtsc1gqsiC4Fo-76" value="regesterfile_enable" style="text;html=1;align=center;verticalAlign=middle;whiteSpace=wrap;rounded=0;fontSize=7;fontStyle=1" parent="1" vertex="1">
          <mxGeometry x="415" y="360" width="20" height="30" as="geometry" />
        </mxCell>
        <mxCell id="kGD7HWYmtsc1gqsiC4Fo-77" value="" style="rounded=0;whiteSpace=wrap;html=1;direction=south;fontSize=7;fontStyle=1" parent="1" vertex="1">
          <mxGeometry x="480" y="520" width="60" height="220" as="geometry" />
        </mxCell>
        <mxCell id="kGD7HWYmtsc1gqsiC4Fo-78" value="fpu decoder" style="text;html=1;align=center;verticalAlign=middle;whiteSpace=wrap;rounded=0;fontSize=7;fontStyle=1" parent="1" vertex="1">
          <mxGeometry x="480" y="730" width="60" height="30" as="geometry" />
        </mxCell>
        <mxCell id="kGD7HWYmtsc1gqsiC4Fo-79" value="" style="endArrow=classic;html=1;rounded=0;strokeWidth=1;startSize=6;opacity=70;jumpSize=1;strokeColor=default;shadow=1;fontSize=7;fontStyle=1" parent="1" edge="1">
          <mxGeometry width="50" height="50" relative="1" as="geometry">
            <mxPoint x="300" y="540" as="sourcePoint" />
            <mxPoint x="479" y="540" as="targetPoint" />
          </mxGeometry>
        </mxCell>
        <mxCell id="kGD7HWYmtsc1gqsiC4Fo-80" value="" style="endArrow=none;html=1;rounded=0;fontSize=7;fontStyle=1" parent="1" edge="1">
          <mxGeometry width="50" height="50" relative="1" as="geometry">
            <mxPoint x="300" y="540" as="sourcePoint" />
            <mxPoint x="300" y="355" as="targetPoint" />
          </mxGeometry>
        </mxCell>
        <mxCell id="kGD7HWYmtsc1gqsiC4Fo-81" value="" style="endArrow=none;html=1;rounded=0;fontSize=7;fontStyle=1" parent="1" edge="1">
          <mxGeometry width="50" height="50" relative="1" as="geometry">
            <mxPoint x="445" y="550" as="sourcePoint" />
            <mxPoint x="465" y="530" as="targetPoint" />
          </mxGeometry>
        </mxCell>
        <mxCell id="kGD7HWYmtsc1gqsiC4Fo-82" value="&lt;font&gt;32&lt;/font&gt;" style="text;html=1;align=center;verticalAlign=middle;whiteSpace=wrap;rounded=0;fontSize=7;fontStyle=1" parent="1" vertex="1">
          <mxGeometry x="445" y="520" width="20" height="20" as="geometry" />
        </mxCell>
        <mxCell id="kGD7HWYmtsc1gqsiC4Fo-83" value="" style="endArrow=classic;html=1;rounded=0;strokeWidth=1;startSize=6;opacity=70;jumpSize=1;strokeColor=default;shadow=1;fontSize=7;fontStyle=1" parent="1" edge="1">
          <mxGeometry width="50" height="50" relative="1" as="geometry">
            <mxPoint x="540" y="560" as="sourcePoint" />
            <mxPoint x="570" y="560" as="targetPoint" />
          </mxGeometry>
        </mxCell>
        <mxCell id="kGD7HWYmtsc1gqsiC4Fo-84" value="register_file_float_enable" style="text;align=center;fontFamily=Times New Roman;verticalAlign=middle;whiteSpace=wrap;fontSize=7;fontStyle=1" parent="1" vertex="1">
          <mxGeometry x="530" y="540" width="100" height="20" as="geometry" />
        </mxCell>
        <mxCell id="kGD7HWYmtsc1gqsiC4Fo-85" value="" style="curved=0;endArrow=classic;html=1;rounded=0;fontSize=7;fontStyle=1" parent="1" edge="1">
          <mxGeometry width="50" height="50" relative="1" as="geometry">
            <mxPoint x="570" y="560" as="sourcePoint" />
            <mxPoint x="370" y="130" as="targetPoint" />
            <Array as="points">
              <mxPoint x="630" y="560" />
              <mxPoint x="630" y="280" />
              <mxPoint x="370" y="280" />
            </Array>
          </mxGeometry>
        </mxCell>
        <mxCell id="kGD7HWYmtsc1gqsiC4Fo-89" value="" style="endArrow=classic;html=1;rounded=0;strokeWidth=1;startSize=6;opacity=70;jumpSize=1;strokeColor=default;shadow=1;fontSize=7;fontStyle=1" parent="1" edge="1">
          <mxGeometry width="50" height="50" relative="1" as="geometry">
            <mxPoint x="330" y="150" as="sourcePoint" />
            <mxPoint x="480" y="150" as="targetPoint" />
          </mxGeometry>
        </mxCell>
        <mxCell id="kGD7HWYmtsc1gqsiC4Fo-90" value="rd_data" style="text;html=1;align=center;verticalAlign=middle;whiteSpace=wrap;rounded=0;fontSize=7;fontStyle=1" parent="1" vertex="1">
          <mxGeometry x="415" y="140" width="30" height="10" as="geometry" />
        </mxCell>
        <mxCell id="kGD7HWYmtsc1gqsiC4Fo-92" value="" style="endArrow=classic;html=1;rounded=0;strokeWidth=1;startSize=6;opacity=70;jumpSize=1;strokeColor=default;shadow=1;fontSize=7;fontStyle=1" parent="1" edge="1">
          <mxGeometry width="50" height="50" relative="1" as="geometry">
            <mxPoint x="540" y="539.51" as="sourcePoint" />
            <mxPoint x="570" y="539.51" as="targetPoint" />
          </mxGeometry>
        </mxCell>
        <mxCell id="kGD7HWYmtsc1gqsiC4Fo-93" value="register_file_int_enable" style="text;align=center;fontFamily=Times New Roman;verticalAlign=middle;whiteSpace=wrap;fontSize=7;fontStyle=1" parent="1" vertex="1">
          <mxGeometry x="540" y="520" width="75" height="20" as="geometry" />
        </mxCell>
        <mxCell id="kGD7HWYmtsc1gqsiC4Fo-94" value="" style="curved=0;endArrow=classic;html=1;rounded=0;fontSize=7;fontStyle=1" parent="1" edge="1">
          <mxGeometry width="50" height="50" relative="1" as="geometry">
            <mxPoint x="570" y="540" as="sourcePoint" />
            <mxPoint x="370" y="380" as="targetPoint" />
            <Array as="points">
              <mxPoint x="620" y="540" />
              <mxPoint x="620" y="510" />
              <mxPoint x="370" y="510" />
            </Array>
          </mxGeometry>
        </mxCell>
        <mxCell id="kGD7HWYmtsc1gqsiC4Fo-96" value="" style="endArrow=classic;html=1;rounded=0;strokeWidth=1;startSize=6;opacity=70;jumpSize=1;strokeColor=default;shadow=1;entryX=0.25;entryY=1;entryDx=0;entryDy=0;fontSize=7;fontStyle=1" parent="1" target="kGD7HWYmtsc1gqsiC4Fo-161" edge="1">
          <mxGeometry width="50" height="50" relative="1" as="geometry">
            <mxPoint x="530" y="314.76" as="sourcePoint" />
            <mxPoint x="560" y="314.76" as="targetPoint" />
            <Array as="points">
              <mxPoint x="720" y="315" />
              <mxPoint x="720" y="18" />
            </Array>
          </mxGeometry>
        </mxCell>
        <mxCell id="kGD7HWYmtsc1gqsiC4Fo-98" value="" style="endArrow=classic;html=1;rounded=0;strokeWidth=1;startSize=6;opacity=70;jumpSize=1;strokeColor=default;shadow=1;entryX=0.842;entryY=1.014;entryDx=0;entryDy=0;entryPerimeter=0;fontSize=7;fontStyle=1" parent="1" target="kGD7HWYmtsc1gqsiC4Fo-161" edge="1">
          <mxGeometry width="50" height="50" relative="1" as="geometry">
            <mxPoint x="530" y="59.76" as="sourcePoint" />
            <mxPoint x="720" y="60" as="targetPoint" />
          </mxGeometry>
        </mxCell>
        <mxCell id="kGD7HWYmtsc1gqsiC4Fo-99" value="" style="endArrow=classic;html=1;rounded=0;strokeWidth=1;startSize=6;opacity=70;jumpSize=1;strokeColor=default;shadow=1;exitX=0;exitY=0.25;exitDx=0;exitDy=0;entryX=0.25;entryY=1;entryDx=0;entryDy=0;fontSize=7;fontStyle=1" parent="1" source="kGD7HWYmtsc1gqsiC4Fo-103" target="kGD7HWYmtsc1gqsiC4Fo-105" edge="1">
          <mxGeometry width="50" height="50" relative="1" as="geometry">
            <mxPoint x="530" y="90" as="sourcePoint" />
            <mxPoint x="779" y="80" as="targetPoint" />
          </mxGeometry>
        </mxCell>
        <mxCell id="kGD7HWYmtsc1gqsiC4Fo-100" value="" style="endArrow=classic;html=1;rounded=0;strokeWidth=1;startSize=6;opacity=70;jumpSize=1;strokeColor=default;shadow=1;exitX=0;exitY=1;exitDx=0;exitDy=0;entryX=0.357;entryY=0.981;entryDx=0;entryDy=0;entryPerimeter=0;fontSize=7;fontStyle=1" parent="1" source="kGD7HWYmtsc1gqsiC4Fo-103" target="kGD7HWYmtsc1gqsiC4Fo-105" edge="1">
          <mxGeometry width="50" height="50" relative="1" as="geometry">
            <mxPoint x="530" y="120" as="sourcePoint" />
            <mxPoint x="780" y="90" as="targetPoint" />
          </mxGeometry>
        </mxCell>
        <mxCell id="kGD7HWYmtsc1gqsiC4Fo-101" value="fpu_operands_i_1" style="text;whiteSpace=wrap;fontSize=7;fontStyle=1" parent="1" vertex="1">
          <mxGeometry x="530" y="40" width="70" height="20" as="geometry" />
        </mxCell>
        <mxCell id="kGD7HWYmtsc1gqsiC4Fo-102" value="apu_operands_i_2" style="text;whiteSpace=wrap;fontSize=7;fontStyle=1" parent="1" vertex="1">
          <mxGeometry x="530" y="55" width="60" height="20" as="geometry" />
        </mxCell>
        <mxCell id="kGD7HWYmtsc1gqsiC4Fo-103" value="apu_operands_i_3" style="text;whiteSpace=wrap;fontSize=7;fontStyle=1" parent="1" vertex="1">
          <mxGeometry x="530" y="70" width="70" height="20" as="geometry" />
        </mxCell>
        <mxCell id="kGD7HWYmtsc1gqsiC4Fo-105" value="" style="rounded=0;whiteSpace=wrap;html=1;direction=south;fontSize=7;fontStyle=1" parent="1" vertex="1">
          <mxGeometry x="900" y="40" width="50" height="140" as="geometry" />
        </mxCell>
        <mxCell id="kGD7HWYmtsc1gqsiC4Fo-106" value="" style="triangle;whiteSpace=wrap;html=1;fontSize=7;fontStyle=1" parent="1" vertex="1">
          <mxGeometry x="900" y="160" width="10" height="20" as="geometry" />
        </mxCell>
        <mxCell id="kGD7HWYmtsc1gqsiC4Fo-108" value="" style="endArrow=none;html=1;rounded=0;exitX=0.25;exitY=1;exitDx=0;exitDy=0;fontSize=7;fontStyle=1" parent="1" source="kGD7HWYmtsc1gqsiC4Fo-111" edge="1">
          <mxGeometry width="50" height="50" relative="1" as="geometry">
            <mxPoint x="670" y="100" as="sourcePoint" />
            <mxPoint x="690" y="80" as="targetPoint" />
          </mxGeometry>
        </mxCell>
        <mxCell id="kGD7HWYmtsc1gqsiC4Fo-109" value="" style="endArrow=none;html=1;rounded=0;fontSize=7;fontStyle=1" parent="1" edge="1">
          <mxGeometry width="50" height="50" relative="1" as="geometry">
            <mxPoint x="670" y="80" as="sourcePoint" />
            <mxPoint x="680" y="67.5" as="targetPoint" />
          </mxGeometry>
        </mxCell>
        <mxCell id="kGD7HWYmtsc1gqsiC4Fo-111" value="&lt;font&gt;32&lt;/font&gt;" style="text;html=1;align=center;verticalAlign=middle;whiteSpace=wrap;rounded=0;fontSize=7;fontStyle=1" parent="1" vertex="1">
          <mxGeometry x="670" y="70" width="20" height="25" as="geometry" />
        </mxCell>
        <mxCell id="kGD7HWYmtsc1gqsiC4Fo-112" value="&lt;font&gt;32&lt;/font&gt;" style="text;html=1;align=center;verticalAlign=middle;whiteSpace=wrap;rounded=0;fontSize=7;fontStyle=1" parent="1" vertex="1">
          <mxGeometry x="660" y="60" width="20" height="20" as="geometry" />
        </mxCell>
        <mxCell id="kGD7HWYmtsc1gqsiC4Fo-115" value="" style="group;fontSize=7;fontStyle=1" parent="1" vertex="1" connectable="0">
          <mxGeometry x="670" y="40" width="10" height="25" as="geometry" />
        </mxCell>
        <mxCell id="kGD7HWYmtsc1gqsiC4Fo-107" value="" style="endArrow=none;html=1;rounded=0;fontSize=7;fontStyle=1" parent="kGD7HWYmtsc1gqsiC4Fo-115" edge="1">
          <mxGeometry width="50" height="50" relative="1" as="geometry">
            <mxPoint y="25" as="sourcePoint" />
            <mxPoint x="10" y="15" as="targetPoint" />
          </mxGeometry>
        </mxCell>
        <mxCell id="kGD7HWYmtsc1gqsiC4Fo-110" value="&lt;font&gt;32&lt;/font&gt;" style="text;html=1;align=center;verticalAlign=middle;whiteSpace=wrap;rounded=0;fontSize=7;fontStyle=1" parent="kGD7HWYmtsc1gqsiC4Fo-115" vertex="1">
          <mxGeometry width="10" height="17.5" as="geometry" />
        </mxCell>
        <mxCell id="kGD7HWYmtsc1gqsiC4Fo-116" value="fpu alu" style="text;html=1;align=center;verticalAlign=middle;whiteSpace=wrap;rounded=0;fontSize=7;fontStyle=1" parent="1" vertex="1">
          <mxGeometry x="890" y="180" width="60" height="30" as="geometry" />
        </mxCell>
        <mxCell id="kGD7HWYmtsc1gqsiC4Fo-122" value="" style="group;fontSize=7;fontStyle=1" parent="1" vertex="1" connectable="0">
          <mxGeometry x="870" y="90" width="30" height="20" as="geometry" />
        </mxCell>
        <mxCell id="kGD7HWYmtsc1gqsiC4Fo-118" value="" style="group;fontSize=7;fontStyle=1" parent="kGD7HWYmtsc1gqsiC4Fo-122" vertex="1" connectable="0">
          <mxGeometry x="10" width="10" height="20" as="geometry" />
        </mxCell>
        <mxCell id="kGD7HWYmtsc1gqsiC4Fo-119" value="" style="endArrow=none;html=1;rounded=0;fontSize=7;fontStyle=1" parent="kGD7HWYmtsc1gqsiC4Fo-118" edge="1">
          <mxGeometry width="50" height="50" relative="1" as="geometry">
            <mxPoint y="20" as="sourcePoint" />
            <mxPoint x="10" y="12" as="targetPoint" />
          </mxGeometry>
        </mxCell>
        <mxCell id="kGD7HWYmtsc1gqsiC4Fo-120" value="&lt;span&gt;5&lt;/span&gt;" style="text;html=1;align=center;verticalAlign=middle;whiteSpace=wrap;rounded=0;fontSize=7;fontStyle=1" parent="kGD7HWYmtsc1gqsiC4Fo-118" vertex="1">
          <mxGeometry y="2.5" width="10" height="10" as="geometry" />
        </mxCell>
        <mxCell id="kGD7HWYmtsc1gqsiC4Fo-121" value="" style="endArrow=classic;html=1;rounded=0;strokeWidth=1;startSize=6;opacity=70;jumpSize=1;strokeColor=default;shadow=1;entryX=0.459;entryY=1.028;entryDx=0;entryDy=0;entryPerimeter=0;fontSize=7;fontStyle=1" parent="kGD7HWYmtsc1gqsiC4Fo-122" target="kGD7HWYmtsc1gqsiC4Fo-105" edge="1">
          <mxGeometry width="50" height="50" relative="1" as="geometry">
            <mxPoint x="-90" y="30" as="sourcePoint" />
            <mxPoint x="30" y="16" as="targetPoint" />
            <Array as="points">
              <mxPoint x="-90" y="14" />
            </Array>
          </mxGeometry>
        </mxCell>
        <mxCell id="kGD7HWYmtsc1gqsiC4Fo-123" value="" style="group;verticalAlign=middle;fontSize=7;fontStyle=1" parent="1" vertex="1" connectable="0">
          <mxGeometry x="750" y="110" width="30" height="20" as="geometry" />
        </mxCell>
        <mxCell id="kGD7HWYmtsc1gqsiC4Fo-127" value="" style="endArrow=classic;html=1;rounded=0;strokeWidth=1;startSize=6;opacity=70;jumpSize=1;strokeColor=default;shadow=1;entryX=0.624;entryY=0.997;entryDx=0;entryDy=0;entryPerimeter=0;fontSize=7;fontStyle=1" parent="kGD7HWYmtsc1gqsiC4Fo-123" target="kGD7HWYmtsc1gqsiC4Fo-105" edge="1">
          <mxGeometry width="50" height="50" relative="1" as="geometry">
            <mxPoint x="40" y="17" as="sourcePoint" />
            <mxPoint x="30" y="16" as="targetPoint" />
            <Array as="points" />
          </mxGeometry>
        </mxCell>
        <mxCell id="kGD7HWYmtsc1gqsiC4Fo-133" value="" style="endArrow=classic;html=1;rounded=0;strokeWidth=1;startSize=6;opacity=70;jumpSize=1;strokeColor=default;shadow=1;entryX=0.75;entryY=1;entryDx=0;entryDy=0;fontSize=7;fontStyle=1" parent="1" target="kGD7HWYmtsc1gqsiC4Fo-105" edge="1">
          <mxGeometry width="50" height="50" relative="1" as="geometry">
            <mxPoint x="800" y="170" as="sourcePoint" />
            <mxPoint x="780" y="145" as="targetPoint" />
            <Array as="points">
              <mxPoint x="800" y="145" />
            </Array>
          </mxGeometry>
        </mxCell>
        <mxCell id="kGD7HWYmtsc1gqsiC4Fo-134" value="" style="group;fontSize=7;fontStyle=1" parent="1" vertex="1" connectable="0">
          <mxGeometry x="600" y="560" width="30" height="20" as="geometry" />
        </mxCell>
        <mxCell id="kGD7HWYmtsc1gqsiC4Fo-135" value="" style="group;fontSize=7;fontStyle=1" parent="kGD7HWYmtsc1gqsiC4Fo-134" vertex="1" connectable="0">
          <mxGeometry x="10" width="10" height="20" as="geometry" />
        </mxCell>
        <mxCell id="kGD7HWYmtsc1gqsiC4Fo-136" value="" style="endArrow=none;html=1;rounded=0;fontSize=7;fontStyle=1" parent="kGD7HWYmtsc1gqsiC4Fo-135" edge="1">
          <mxGeometry width="50" height="50" relative="1" as="geometry">
            <mxPoint y="20" as="sourcePoint" />
            <mxPoint x="10" y="12" as="targetPoint" />
          </mxGeometry>
        </mxCell>
        <mxCell id="kGD7HWYmtsc1gqsiC4Fo-137" value="&lt;span&gt;5&lt;/span&gt;" style="text;html=1;align=center;verticalAlign=middle;whiteSpace=wrap;rounded=0;fontSize=7;fontStyle=1" parent="kGD7HWYmtsc1gqsiC4Fo-135" vertex="1">
          <mxGeometry width="10" height="14" as="geometry" />
        </mxCell>
        <mxCell id="kGD7HWYmtsc1gqsiC4Fo-138" value="" style="endArrow=classic;html=1;rounded=0;strokeWidth=1;startSize=6;opacity=70;jumpSize=1;strokeColor=default;shadow=1;exitX=0;exitY=1;exitDx=0;exitDy=0;fontSize=7;fontStyle=1" parent="kGD7HWYmtsc1gqsiC4Fo-134" source="kGD7HWYmtsc1gqsiC4Fo-145" edge="1">
          <mxGeometry width="50" height="50" relative="1" as="geometry">
            <mxPoint x="-70" y="16" as="sourcePoint" />
            <mxPoint x="180" y="-440" as="targetPoint" />
            <Array as="points">
              <mxPoint x="180" y="16" />
            </Array>
          </mxGeometry>
        </mxCell>
        <mxCell id="kGD7HWYmtsc1gqsiC4Fo-139" value="" style="group;fontSize=7;fontStyle=1" parent="1" vertex="1" connectable="0">
          <mxGeometry x="570" y="580" width="50" height="20" as="geometry" />
        </mxCell>
        <mxCell id="kGD7HWYmtsc1gqsiC4Fo-143" value="" style="endArrow=classic;html=1;rounded=0;strokeWidth=1;startSize=6;opacity=70;jumpSize=1;strokeColor=default;shadow=1;fontSize=7;fontStyle=1" parent="kGD7HWYmtsc1gqsiC4Fo-139" edge="1">
          <mxGeometry width="50" height="50" relative="1" as="geometry">
            <mxPoint x="-30" y="16" as="sourcePoint" />
            <mxPoint x="220" y="-450" as="targetPoint" />
            <Array as="points">
              <mxPoint x="220" y="18" />
            </Array>
          </mxGeometry>
        </mxCell>
        <mxCell id="kGD7HWYmtsc1gqsiC4Fo-144" value="" style="endArrow=classic;html=1;rounded=0;strokeWidth=1;startSize=6;opacity=70;jumpSize=1;strokeColor=default;shadow=1;fontSize=7;fontStyle=1;exitX=0.446;exitY=0.002;exitDx=0;exitDy=0;exitPerimeter=0;" parent="1" source="kGD7HWYmtsc1gqsiC4Fo-77" edge="1">
          <mxGeometry width="50" height="50" relative="1" as="geometry">
            <mxPoint x="540" y="620" as="sourcePoint" />
            <mxPoint x="800" y="170" as="targetPoint" />
            <Array as="points">
              <mxPoint x="800" y="620" />
            </Array>
          </mxGeometry>
        </mxCell>
        <mxCell id="kGD7HWYmtsc1gqsiC4Fo-140" value="" style="group;fontSize=7;fontStyle=1" parent="1" vertex="1" connectable="0">
          <mxGeometry x="610" y="580" width="10" height="20" as="geometry" />
        </mxCell>
        <mxCell id="kGD7HWYmtsc1gqsiC4Fo-141" value="" style="endArrow=none;html=1;rounded=0;fontSize=7;fontStyle=1" parent="kGD7HWYmtsc1gqsiC4Fo-140" edge="1">
          <mxGeometry width="50" height="50" relative="1" as="geometry">
            <mxPoint y="20" as="sourcePoint" />
            <mxPoint x="10" y="12" as="targetPoint" />
          </mxGeometry>
        </mxCell>
        <mxCell id="kGD7HWYmtsc1gqsiC4Fo-142" value="&lt;span&gt;3&lt;/span&gt;" style="text;html=1;align=center;verticalAlign=middle;whiteSpace=wrap;rounded=0;fontSize=7;fontStyle=1" parent="kGD7HWYmtsc1gqsiC4Fo-140" vertex="1">
          <mxGeometry width="10" height="14" as="geometry" />
        </mxCell>
        <mxCell id="kGD7HWYmtsc1gqsiC4Fo-145" value="apu_op_i" style="text;whiteSpace=wrap;verticalAlign=middle;fontSize=7;fontStyle=1" parent="1" vertex="1">
          <mxGeometry x="540" y="562.5" width="50" height="15" as="geometry" />
        </mxCell>
        <mxCell id="kGD7HWYmtsc1gqsiC4Fo-147" value="apu_op_i" style="text;whiteSpace=wrap;verticalAlign=middle;fontSize=7;fontStyle=1" parent="1" vertex="1">
          <mxGeometry x="830" y="90" width="50" height="15" as="geometry" />
        </mxCell>
        <mxCell id="kGD7HWYmtsc1gqsiC4Fo-148" value="fp_rnd_mode" style="text;whiteSpace=wrap;verticalAlign=middle;fontSize=7;fontStyle=1" parent="1" vertex="1">
          <mxGeometry x="820" y="110" width="60" height="20" as="geometry" />
        </mxCell>
        <mxCell id="kGD7HWYmtsc1gqsiC4Fo-149" value="fp_rnd_mode" style="text;whiteSpace=wrap;verticalAlign=middle;fontSize=7;fontStyle=1" parent="1" vertex="1">
          <mxGeometry x="540" y="580" width="60" height="20" as="geometry" />
        </mxCell>
        <mxCell id="kGD7HWYmtsc1gqsiC4Fo-150" value="apu_req_i" style="text;verticalAlign=middle;whiteSpace=wrap;fontColor=default;fontSize=7;fontStyle=1" parent="1" vertex="1">
          <mxGeometry x="830" y="130" width="60" height="20" as="geometry" />
        </mxCell>
        <mxCell id="kGD7HWYmtsc1gqsiC4Fo-151" value="fpu_enable" style="text;whiteSpace=wrap;verticalAlign=middle;align=center;fontSize=7;fontStyle=1" parent="1" vertex="1">
          <mxGeometry x="540" y="600" width="40" height="10" as="geometry" />
        </mxCell>
        <mxCell id="kGD7HWYmtsc1gqsiC4Fo-124" value="" style="group;fontSize=7;fontStyle=1" parent="1" vertex="1" connectable="0">
          <mxGeometry x="880" y="110" width="10" height="20" as="geometry" />
        </mxCell>
        <mxCell id="kGD7HWYmtsc1gqsiC4Fo-125" value="" style="endArrow=none;html=1;rounded=0;fontSize=7;fontStyle=1" parent="kGD7HWYmtsc1gqsiC4Fo-124" edge="1">
          <mxGeometry width="50" height="50" relative="1" as="geometry">
            <mxPoint y="20" as="sourcePoint" />
            <mxPoint x="10" y="12" as="targetPoint" />
          </mxGeometry>
        </mxCell>
        <mxCell id="kGD7HWYmtsc1gqsiC4Fo-126" value="&lt;span&gt;3&lt;/span&gt;" style="text;html=1;align=center;verticalAlign=middle;whiteSpace=wrap;rounded=0;fontSize=7;fontStyle=1" parent="kGD7HWYmtsc1gqsiC4Fo-124" vertex="1">
          <mxGeometry width="10" height="14" as="geometry" />
        </mxCell>
        <mxCell id="kGD7HWYmtsc1gqsiC4Fo-169" value="" style="group;fontSize=7;fontStyle=1" parent="1" vertex="1" connectable="0">
          <mxGeometry x="770" y="20" width="30" height="20" as="geometry" />
        </mxCell>
        <mxCell id="kGD7HWYmtsc1gqsiC4Fo-170" value="" style="group;fontSize=7;fontStyle=1" parent="kGD7HWYmtsc1gqsiC4Fo-169" vertex="1" connectable="0">
          <mxGeometry x="10" width="10" height="20" as="geometry" />
        </mxCell>
        <mxCell id="kGD7HWYmtsc1gqsiC4Fo-171" value="" style="endArrow=none;html=1;rounded=0;fontSize=7;fontStyle=1" parent="kGD7HWYmtsc1gqsiC4Fo-170" edge="1">
          <mxGeometry width="50" height="50" relative="1" as="geometry">
            <mxPoint y="20" as="sourcePoint" />
            <mxPoint x="10" y="12" as="targetPoint" />
          </mxGeometry>
        </mxCell>
        <mxCell id="kGD7HWYmtsc1gqsiC4Fo-172" value="32" style="text;html=1;align=center;verticalAlign=middle;whiteSpace=wrap;rounded=0;fontSize=7;fontStyle=1" parent="kGD7HWYmtsc1gqsiC4Fo-170" vertex="1">
          <mxGeometry width="10" height="14" as="geometry" />
        </mxCell>
        <mxCell id="kGD7HWYmtsc1gqsiC4Fo-173" value="" style="endArrow=classic;html=1;rounded=0;strokeWidth=1;startSize=6;opacity=70;jumpSize=1;strokeColor=default;shadow=1;entryX=0.101;entryY=1.06;entryDx=0;entryDy=0;entryPerimeter=0;fontSize=7;fontStyle=1" parent="kGD7HWYmtsc1gqsiC4Fo-169" target="kGD7HWYmtsc1gqsiC4Fo-105" edge="1">
          <mxGeometry width="50" height="50" relative="1" as="geometry">
            <mxPoint y="16" as="sourcePoint" />
            <mxPoint x="30" y="16" as="targetPoint" />
            <Array as="points">
              <mxPoint x="110" y="16" />
              <mxPoint x="110" y="34" />
            </Array>
          </mxGeometry>
        </mxCell>
        <mxCell id="kGD7HWYmtsc1gqsiC4Fo-176" value="" style="group;fontSize=7;fontStyle=1" parent="1" vertex="1" connectable="0">
          <mxGeometry x="590" y="620" width="30" height="20" as="geometry" />
        </mxCell>
        <mxCell id="kGD7HWYmtsc1gqsiC4Fo-177" value="" style="group;fontSize=7;fontStyle=1" parent="kGD7HWYmtsc1gqsiC4Fo-176" vertex="1" connectable="0">
          <mxGeometry x="10" width="10" height="20" as="geometry" />
        </mxCell>
        <mxCell id="kGD7HWYmtsc1gqsiC4Fo-178" value="" style="endArrow=none;html=1;rounded=0;fontSize=7;fontStyle=1" parent="kGD7HWYmtsc1gqsiC4Fo-177" edge="1">
          <mxGeometry width="50" height="50" relative="1" as="geometry">
            <mxPoint y="20" as="sourcePoint" />
            <mxPoint x="20" as="targetPoint" />
            <Array as="points" />
          </mxGeometry>
        </mxCell>
        <mxCell id="kGD7HWYmtsc1gqsiC4Fo-179" value="&lt;span&gt;5&lt;/span&gt;" style="text;html=1;align=center;verticalAlign=middle;whiteSpace=wrap;rounded=0;fontSize=7;fontStyle=1" parent="kGD7HWYmtsc1gqsiC4Fo-177" vertex="1">
          <mxGeometry width="10" height="14" as="geometry" />
        </mxCell>
        <mxCell id="kGD7HWYmtsc1gqsiC4Fo-180" value="" style="endArrow=classic;html=1;rounded=0;strokeWidth=1;startSize=6;opacity=70;jumpSize=1;strokeColor=default;shadow=1;entryX=1;entryY=0.5;entryDx=0;entryDy=0;exitX=0.5;exitY=0;exitDx=0;exitDy=0;fontSize=7;fontStyle=1" parent="1" source="kGD7HWYmtsc1gqsiC4Fo-77" target="kGD7HWYmtsc1gqsiC4Fo-161" edge="1">
          <mxGeometry width="50" height="50" relative="1" as="geometry">
            <mxPoint x="590" y="640" as="sourcePoint" />
            <mxPoint x="820" y="640" as="targetPoint" />
            <Array as="points">
              <mxPoint x="760" y="630" />
            </Array>
          </mxGeometry>
        </mxCell>
        <mxCell id="kGD7HWYmtsc1gqsiC4Fo-181" value="rs1_sel" style="text;whiteSpace=wrap;verticalAlign=middle;align=center;fontSize=7;fontStyle=1" parent="1" vertex="1">
          <mxGeometry x="534" y="620" width="45" height="10" as="geometry" />
        </mxCell>
        <mxCell id="kGD7HWYmtsc1gqsiC4Fo-184" value="int_operands_i_1" style="text;whiteSpace=wrap;fontSize=7;fontStyle=1" parent="1" vertex="1">
          <mxGeometry x="530" y="300" width="70" height="20" as="geometry" />
        </mxCell>
        <mxCell id="kGD7HWYmtsc1gqsiC4Fo-185" value="" style="group;fontSize=7;fontStyle=1" parent="1" vertex="1" connectable="0">
          <mxGeometry x="680" y="290" width="60" height="52.25" as="geometry" />
        </mxCell>
        <mxCell id="kGD7HWYmtsc1gqsiC4Fo-186" value="" style="endArrow=none;html=1;rounded=0;fontSize=7;fontStyle=1" parent="kGD7HWYmtsc1gqsiC4Fo-185" edge="1">
          <mxGeometry width="50" height="50" relative="1" as="geometry">
            <mxPoint x="-40" y="30" as="sourcePoint" />
            <mxPoint x="-20" y="15" as="targetPoint" />
          </mxGeometry>
        </mxCell>
        <mxCell id="kGD7HWYmtsc1gqsiC4Fo-197" value="" style="group;verticalAlign=middle;fontSize=7;fontStyle=1" parent="kGD7HWYmtsc1gqsiC4Fo-185" vertex="1" connectable="0">
          <mxGeometry x="-30" y="21.25" width="90" height="31" as="geometry" />
        </mxCell>
        <mxCell id="kGD7HWYmtsc1gqsiC4Fo-200" value="&lt;font&gt;32&lt;/font&gt;" style="text;html=1;align=center;verticalAlign=middle;whiteSpace=wrap;rounded=0;fontSize=7;fontStyle=1" parent="kGD7HWYmtsc1gqsiC4Fo-197" vertex="1">
          <mxGeometry x="-10" y="10" width="10" height="21" as="geometry" />
        </mxCell>
        <mxCell id="kGD7HWYmtsc1gqsiC4Fo-188" value="" style="group;fontSize=7;fontStyle=1" parent="1" vertex="1" connectable="0">
          <mxGeometry x="750" width="20" height="70" as="geometry" />
        </mxCell>
        <mxCell id="kGD7HWYmtsc1gqsiC4Fo-161" value="" style="shape=trapezoid;perimeter=trapezoidPerimeter;whiteSpace=wrap;html=1;fixedSize=1;direction=south;fontSize=7;fontStyle=1" parent="kGD7HWYmtsc1gqsiC4Fo-188" vertex="1">
          <mxGeometry width="20" height="70" as="geometry" />
        </mxCell>
        <mxCell id="kGD7HWYmtsc1gqsiC4Fo-183" value="1" style="text;html=1;align=center;verticalAlign=middle;whiteSpace=wrap;rounded=0;fontSize=7;fontStyle=1" parent="kGD7HWYmtsc1gqsiC4Fo-188" vertex="1">
          <mxGeometry x="5" y="10" width="10" height="20" as="geometry" />
        </mxCell>
        <mxCell id="kGD7HWYmtsc1gqsiC4Fo-182" value="0" style="text;html=1;align=center;verticalAlign=middle;whiteSpace=wrap;rounded=0;fontSize=7;fontStyle=1" parent="kGD7HWYmtsc1gqsiC4Fo-188" vertex="1">
          <mxGeometry y="45" width="20" height="10" as="geometry" />
        </mxCell>
        <mxCell id="kGD7HWYmtsc1gqsiC4Fo-189" value="apu_operands_i_1" style="text;whiteSpace=wrap;verticalAlign=middle;fontSize=7;fontStyle=1" parent="1" vertex="1">
          <mxGeometry x="800" y="20" width="80" height="20" as="geometry" />
        </mxCell>
        <mxCell id="kGD7HWYmtsc1gqsiC4Fo-190" value="" style="rounded=0;whiteSpace=wrap;html=1;direction=south;fontSize=7;fontStyle=1" parent="1" vertex="1">
          <mxGeometry x="889" y="300" width="61" height="135" as="geometry" />
        </mxCell>
        <mxCell id="kGD7HWYmtsc1gqsiC4Fo-196" value="" style="endArrow=classic;html=1;rounded=0;strokeWidth=1;startSize=6;opacity=70;jumpSize=1;strokeColor=default;shadow=1;entryX=0.113;entryY=0.991;entryDx=0;entryDy=0;entryPerimeter=0;fontSize=7;fontStyle=1" parent="1" target="kGD7HWYmtsc1gqsiC4Fo-190" edge="1">
          <mxGeometry width="50" height="50" relative="1" as="geometry">
            <mxPoint x="720" y="315" as="sourcePoint" />
            <mxPoint x="860" y="360" as="targetPoint" />
          </mxGeometry>
        </mxCell>
        <mxCell id="kGD7HWYmtsc1gqsiC4Fo-201" value="" style="endArrow=classic;html=1;rounded=0;strokeWidth=1;startSize=6;opacity=70;jumpSize=1;strokeColor=default;shadow=1;exitX=0.366;exitY=-0.048;exitDx=0;exitDy=0;exitPerimeter=0;entryX=0;entryY=0.5;entryDx=0;entryDy=0;fontSize=7;fontStyle=1" parent="1" source="kGD7HWYmtsc1gqsiC4Fo-13" target="kGD7HWYmtsc1gqsiC4Fo-236" edge="1">
          <mxGeometry width="50" height="50" relative="1" as="geometry">
            <mxPoint x="650" y="334" as="sourcePoint" />
            <mxPoint x="710" y="345" as="targetPoint" />
            <Array as="points" />
          </mxGeometry>
        </mxCell>
        <mxCell id="kGD7HWYmtsc1gqsiC4Fo-198" value="" style="group;fontSize=7;fontStyle=1" parent="1" vertex="1" connectable="0">
          <mxGeometry x="640" y="320" width="10" height="30" as="geometry" />
        </mxCell>
        <mxCell id="kGD7HWYmtsc1gqsiC4Fo-199" value="" style="endArrow=none;html=1;rounded=0;fontSize=7;fontStyle=1" parent="kGD7HWYmtsc1gqsiC4Fo-198" edge="1">
          <mxGeometry width="50" height="50" relative="1" as="geometry">
            <mxPoint y="30" as="sourcePoint" />
            <mxPoint x="10" y="18" as="targetPoint" />
          </mxGeometry>
        </mxCell>
        <mxCell id="kGD7HWYmtsc1gqsiC4Fo-187" value="&lt;font&gt;32&lt;/font&gt;" style="text;html=1;align=center;verticalAlign=middle;whiteSpace=wrap;rounded=0;fontSize=7;fontStyle=1" parent="1" vertex="1">
          <mxGeometry x="640" y="293.75" width="10" height="17.5" as="geometry" />
        </mxCell>
        <mxCell id="kGD7HWYmtsc1gqsiC4Fo-204" value="int_operands_i_2" style="text;whiteSpace=wrap;fontSize=7;fontStyle=1" parent="1" vertex="1">
          <mxGeometry x="530" y="330" width="60" height="22.5" as="geometry" />
        </mxCell>
        <mxCell id="kGD7HWYmtsc1gqsiC4Fo-210" value="" style="endArrow=classic;html=1;rounded=0;strokeWidth=1;startSize=6;opacity=70;jumpSize=1;strokeColor=default;shadow=1;entryX=0.573;entryY=0.991;entryDx=0;entryDy=0;entryPerimeter=0;fontSize=7;fontStyle=1;exitX=0.551;exitY=-0.02;exitDx=0;exitDy=0;exitPerimeter=0;" parent="1" source="kGD7HWYmtsc1gqsiC4Fo-77" target="kGD7HWYmtsc1gqsiC4Fo-190" edge="1">
          <mxGeometry width="50" height="50" relative="1" as="geometry">
            <mxPoint x="540" y="660" as="sourcePoint" />
            <mxPoint x="570" y="660" as="targetPoint" />
            <Array as="points">
              <mxPoint x="810" y="641" />
              <mxPoint x="810" y="377" />
            </Array>
          </mxGeometry>
        </mxCell>
        <mxCell id="kGD7HWYmtsc1gqsiC4Fo-211" value="alu_add" style="text;html=1;align=center;verticalAlign=middle;whiteSpace=wrap;rounded=0;fontSize=7;fontStyle=1" parent="1" vertex="1">
          <mxGeometry x="535" y="630" width="50" height="10" as="geometry" />
        </mxCell>
        <mxCell id="kGD7HWYmtsc1gqsiC4Fo-212" value="operation" style="text;html=1;align=center;verticalAlign=middle;whiteSpace=wrap;rounded=0;fontSize=7;fontStyle=1" parent="1" vertex="1">
          <mxGeometry x="825" y="352.5" width="60" height="30" as="geometry" />
        </mxCell>
        <mxCell id="kGD7HWYmtsc1gqsiC4Fo-213" value="alu" style="text;html=1;align=center;verticalAlign=middle;whiteSpace=wrap;rounded=0;fontSize=7;fontStyle=1" parent="1" vertex="1">
          <mxGeometry x="885" y="435" width="60" height="30" as="geometry" />
        </mxCell>
        <mxCell id="kGD7HWYmtsc1gqsiC4Fo-214" value="" style="ellipse;whiteSpace=wrap;html=1;direction=south;fontSize=7;fontStyle=1" parent="1" vertex="1">
          <mxGeometry x="655" y="480" width="80" height="90" as="geometry" />
        </mxCell>
        <mxCell id="kGD7HWYmtsc1gqsiC4Fo-215" value="immediate" style="text;html=1;align=center;verticalAlign=middle;whiteSpace=wrap;rounded=0;fontSize=7;fontStyle=1" parent="1" vertex="1">
          <mxGeometry x="660" y="515" width="60" height="30" as="geometry" />
        </mxCell>
        <mxCell id="kGD7HWYmtsc1gqsiC4Fo-221" value="" style="endArrow=classic;html=1;rounded=0;strokeWidth=1;startSize=6;opacity=70;jumpSize=1;strokeColor=default;shadow=1;exitX=0.715;exitY=-0.042;exitDx=0;exitDy=0;exitPerimeter=0;entryX=1;entryY=0.5;entryDx=0;entryDy=0;fontSize=7;fontStyle=1" parent="1" target="kGD7HWYmtsc1gqsiC4Fo-214" edge="1">
          <mxGeometry width="50" height="50" relative="1" as="geometry">
            <mxPoint x="540" y="658.3" as="sourcePoint" />
            <mxPoint x="692.48" y="551" as="targetPoint" />
            <Array as="points">
              <mxPoint x="695" y="659" />
            </Array>
          </mxGeometry>
        </mxCell>
        <mxCell id="kGD7HWYmtsc1gqsiC4Fo-222" value="imm" style="text;html=1;align=center;verticalAlign=middle;whiteSpace=wrap;rounded=0;fontSize=7;fontStyle=1" parent="1" vertex="1">
          <mxGeometry x="540" y="650" width="20" height="10" as="geometry" />
        </mxCell>
        <mxCell id="kGD7HWYmtsc1gqsiC4Fo-223" value="" style="endArrow=none;html=1;rounded=0;fontSize=7;fontStyle=1" parent="1" edge="1">
          <mxGeometry width="50" height="50" relative="1" as="geometry">
            <mxPoint x="615" y="670" as="sourcePoint" />
            <mxPoint x="635" y="650" as="targetPoint" />
          </mxGeometry>
        </mxCell>
        <mxCell id="kGD7HWYmtsc1gqsiC4Fo-224" value="12" style="text;align=center;verticalAlign=middle;whiteSpace=wrap;rounded=0;fontSize=7;fontStyle=1" parent="1" vertex="1">
          <mxGeometry x="610" y="650" width="20" height="10" as="geometry" />
        </mxCell>
        <mxCell id="kGD7HWYmtsc1gqsiC4Fo-233" value="" style="endArrow=classic;html=1;rounded=0;strokeWidth=1;startSize=6;opacity=70;jumpSize=1;strokeColor=default;shadow=1;exitX=0;exitY=0.5;exitDx=0;exitDy=0;entryX=0.665;entryY=0.984;entryDx=0;entryDy=0;entryPerimeter=0;fontSize=7;fontStyle=1" parent="1" source="kGD7HWYmtsc1gqsiC4Fo-214" target="kGD7HWYmtsc1gqsiC4Fo-235" edge="1">
          <mxGeometry width="50" height="50" relative="1" as="geometry">
            <mxPoint x="675" y="465" as="sourcePoint" />
            <mxPoint x="690" y="380" as="targetPoint" />
            <Array as="points">
              <mxPoint x="695" y="367" />
            </Array>
          </mxGeometry>
        </mxCell>
        <mxCell id="kGD7HWYmtsc1gqsiC4Fo-234" value="" style="group;fontSize=7;fontStyle=1" parent="1" vertex="1" connectable="0">
          <mxGeometry x="730" y="320" width="20" height="70" as="geometry" />
        </mxCell>
        <mxCell id="kGD7HWYmtsc1gqsiC4Fo-235" value="" style="shape=trapezoid;perimeter=trapezoidPerimeter;whiteSpace=wrap;html=1;fixedSize=1;direction=south;fontSize=7;fontStyle=1" parent="kGD7HWYmtsc1gqsiC4Fo-234" vertex="1">
          <mxGeometry width="20" height="70" as="geometry" />
        </mxCell>
        <mxCell id="kGD7HWYmtsc1gqsiC4Fo-236" value="0" style="text;html=1;align=center;verticalAlign=middle;whiteSpace=wrap;rounded=0;fontSize=7;fontStyle=1" parent="kGD7HWYmtsc1gqsiC4Fo-234" vertex="1">
          <mxGeometry y="20" width="20" height="10" as="geometry" />
        </mxCell>
        <mxCell id="kGD7HWYmtsc1gqsiC4Fo-237" value="1" style="text;html=1;align=center;verticalAlign=middle;whiteSpace=wrap;rounded=0;fontSize=7;fontStyle=1" parent="kGD7HWYmtsc1gqsiC4Fo-234" vertex="1">
          <mxGeometry x="5" y="35" width="10" height="20" as="geometry" />
        </mxCell>
        <mxCell id="kGD7HWYmtsc1gqsiC4Fo-242" value="" style="endArrow=none;html=1;rounded=0;fontSize=7;fontStyle=1" parent="1" edge="1">
          <mxGeometry width="50" height="50" relative="1" as="geometry">
            <mxPoint x="685" y="430" as="sourcePoint" />
            <mxPoint x="705" y="410" as="targetPoint" />
          </mxGeometry>
        </mxCell>
        <mxCell id="kGD7HWYmtsc1gqsiC4Fo-243" value="32" style="text;html=1;align=center;verticalAlign=middle;whiteSpace=wrap;rounded=0;fontSize=7;fontStyle=1" parent="1" vertex="1">
          <mxGeometry x="690" y="400" width="10" height="10" as="geometry" />
        </mxCell>
        <mxCell id="kGD7HWYmtsc1gqsiC4Fo-244" value="" style="endArrow=classic;html=1;rounded=0;strokeWidth=1;startSize=6;opacity=70;jumpSize=1;strokeColor=default;shadow=1;entryX=0.397;entryY=0.979;entryDx=0;entryDy=0;entryPerimeter=0;fontSize=7;fontStyle=1" parent="1" target="kGD7HWYmtsc1gqsiC4Fo-190" edge="1">
          <mxGeometry width="50" height="50" relative="1" as="geometry">
            <mxPoint x="750" y="354.71" as="sourcePoint" />
            <mxPoint x="780" y="354.71" as="targetPoint" />
          </mxGeometry>
        </mxCell>
        <mxCell id="kGD7HWYmtsc1gqsiC4Fo-245" value="" style="endArrow=classic;html=1;rounded=0;strokeWidth=1;startSize=6;opacity=70;jumpSize=1;strokeColor=default;shadow=1;entryX=1;entryY=0.5;entryDx=0;entryDy=0;fontSize=7;fontStyle=1;exitX=0.709;exitY=-0.02;exitDx=0;exitDy=0;exitPerimeter=0;" parent="1" source="kGD7HWYmtsc1gqsiC4Fo-77" target="kGD7HWYmtsc1gqsiC4Fo-235" edge="1">
          <mxGeometry width="50" height="50" relative="1" as="geometry">
            <mxPoint x="541" y="680" as="sourcePoint" />
            <mxPoint x="750" y="450" as="targetPoint" />
            <Array as="points">
              <mxPoint x="740" y="676" />
            </Array>
          </mxGeometry>
        </mxCell>
        <mxCell id="kGD7HWYmtsc1gqsiC4Fo-246" value="" style="group;fontSize=7;fontStyle=1" parent="1" vertex="1" connectable="0">
          <mxGeometry x="760" y="330" width="10" height="30" as="geometry" />
        </mxCell>
        <mxCell id="kGD7HWYmtsc1gqsiC4Fo-247" value="" style="endArrow=none;html=1;rounded=0;fontSize=7;fontStyle=1" parent="kGD7HWYmtsc1gqsiC4Fo-246" edge="1">
          <mxGeometry width="50" height="50" relative="1" as="geometry">
            <mxPoint y="30" as="sourcePoint" />
            <mxPoint x="10" y="18" as="targetPoint" />
          </mxGeometry>
        </mxCell>
        <mxCell id="kGD7HWYmtsc1gqsiC4Fo-248" value="&lt;font&gt;32&lt;/font&gt;" style="text;html=1;align=center;verticalAlign=middle;whiteSpace=wrap;rounded=0;fontSize=7;fontStyle=1" parent="kGD7HWYmtsc1gqsiC4Fo-246" vertex="1">
          <mxGeometry y="10" width="10" height="11" as="geometry" />
        </mxCell>
        <mxCell id="kGD7HWYmtsc1gqsiC4Fo-250" value="imm_sel" style="text;html=1;align=center;verticalAlign=middle;resizable=0;points=[];autosize=1;strokeColor=none;fillColor=none;fontSize=7;fontStyle=1" parent="1" vertex="1">
          <mxGeometry x="539" y="662" width="44" height="20" as="geometry" />
        </mxCell>
        <mxCell id="kGD7HWYmtsc1gqsiC4Fo-251" value="immediate_out" style="text;whiteSpace=wrap;verticalAlign=middle;align=center;fontSize=7;fontStyle=1" parent="1" vertex="1">
          <mxGeometry x="650" y="440" width="90" height="10" as="geometry" />
        </mxCell>
        <mxCell id="kGD7HWYmtsc1gqsiC4Fo-252" value="operands_i_2" style="text;whiteSpace=wrap;verticalAlign=middle;fontSize=7;fontStyle=1" parent="1" vertex="1">
          <mxGeometry x="830" y="342.5" width="55" height="10" as="geometry" />
        </mxCell>
        <mxCell id="PMF_o5RqIMrdFD3GeigL-13" value="" style="endArrow=classic;html=1;rounded=0;strokeWidth=1;startSize=6;opacity=70;jumpSize=1;strokeColor=default;shadow=1;fontSize=7;fontStyle=1" parent="1" edge="1">
          <mxGeometry width="50" height="50" relative="1" as="geometry">
            <mxPoint x="950" y="104" as="sourcePoint" />
            <mxPoint x="1080" y="104" as="targetPoint" />
          </mxGeometry>
        </mxCell>
        <mxCell id="PMF_o5RqIMrdFD3GeigL-14" value="" style="endArrow=classic;html=1;rounded=0;strokeWidth=1;startSize=6;opacity=70;jumpSize=1;strokeColor=default;shadow=1;fontSize=7;fontStyle=1" parent="1" edge="1">
          <mxGeometry width="50" height="50" relative="1" as="geometry">
            <mxPoint x="950" y="124.5" as="sourcePoint" />
            <mxPoint x="1080" y="125" as="targetPoint" />
          </mxGeometry>
        </mxCell>
        <mxCell id="PMF_o5RqIMrdFD3GeigL-15" value="" style="group;fontSize=7;fontStyle=1" parent="1" vertex="1" connectable="0">
          <mxGeometry x="970" y="45" width="10" height="25" as="geometry" />
        </mxCell>
        <mxCell id="PMF_o5RqIMrdFD3GeigL-16" value="" style="endArrow=none;html=1;rounded=0;fontSize=7;fontStyle=1" parent="PMF_o5RqIMrdFD3GeigL-15" edge="1">
          <mxGeometry width="50" height="50" relative="1" as="geometry">
            <mxPoint y="25" as="sourcePoint" />
            <mxPoint x="10" y="15" as="targetPoint" />
          </mxGeometry>
        </mxCell>
        <mxCell id="PMF_o5RqIMrdFD3GeigL-17" value="&lt;font&gt;32&lt;/font&gt;" style="text;html=1;align=center;verticalAlign=middle;whiteSpace=wrap;rounded=0;fontSize=7;fontStyle=1" parent="PMF_o5RqIMrdFD3GeigL-15" vertex="1">
          <mxGeometry width="10" height="17.5" as="geometry" />
        </mxCell>
        <mxCell id="PMF_o5RqIMrdFD3GeigL-18" value="apu_rdata_o" style="text;whiteSpace=wrap;verticalAlign=middle;fontSize=7;fontStyle=1" parent="1" vertex="1">
          <mxGeometry x="990" y="55" width="80" height="10" as="geometry" />
        </mxCell>
        <mxCell id="PMF_o5RqIMrdFD3GeigL-19" value="apu_rvalid_o" style="text;whiteSpace=wrap;verticalAlign=middle;align=center;fontSize=7;fontStyle=1" parent="1" vertex="1">
          <mxGeometry x="960" y="110" width="70" height="20" as="geometry" />
        </mxCell>
        <mxCell id="PMF_o5RqIMrdFD3GeigL-22" value="apu_rflags_o" style="text;whiteSpace=wrap;align=center;verticalAlign=middle;fontSize=7;fontStyle=1" parent="1" vertex="1">
          <mxGeometry x="960" y="87.5" width="70" height="20" as="geometry" />
        </mxCell>
        <mxCell id="PMF_o5RqIMrdFD3GeigL-28" value="" style="endArrow=none;html=1;rounded=0;fontSize=7;fontStyle=1" parent="1" edge="1">
          <mxGeometry width="50" height="50" relative="1" as="geometry">
            <mxPoint x="1040" y="115" as="sourcePoint" />
            <mxPoint x="1060" y="95" as="targetPoint" />
          </mxGeometry>
        </mxCell>
        <mxCell id="PMF_o5RqIMrdFD3GeigL-29" value="5" style="text;html=1;align=center;verticalAlign=middle;whiteSpace=wrap;rounded=0;fontSize=7;fontStyle=1" parent="1" vertex="1">
          <mxGeometry x="1020" y="77.5" width="60" height="30" as="geometry" />
        </mxCell>
        <mxCell id="PMF_o5RqIMrdFD3GeigL-31" value="" style="endArrow=classic;html=1;rounded=0;strokeWidth=1;startSize=6;opacity=70;jumpSize=1;strokeColor=default;shadow=1;entryX=1;entryY=0.25;entryDx=0;entryDy=0;fontSize=7;fontStyle=1" parent="1" target="PMF_o5RqIMrdFD3GeigL-29" edge="1">
          <mxGeometry width="50" height="50" relative="1" as="geometry">
            <mxPoint x="950" y="84.5" as="sourcePoint" />
            <mxPoint x="1080" y="85" as="targetPoint" />
          </mxGeometry>
        </mxCell>
        <mxCell id="PMF_o5RqIMrdFD3GeigL-30" value="apu_gnt_o" style="text;verticalAlign=middle;align=center;fontColor=default;html=1;fontSize=7;fontStyle=1" parent="1" vertex="1">
          <mxGeometry x="950" y="67.5" width="70" height="20" as="geometry" />
        </mxCell>
        <mxCell id="PMF_o5RqIMrdFD3GeigL-32" value="" style="endArrow=classic;html=1;rounded=0;strokeWidth=1;startSize=6;opacity=70;jumpSize=1;strokeColor=default;shadow=1;fontSize=7;fontStyle=1;entryX=0.5;entryY=1;entryDx=0;entryDy=0;" parent="1" target="PMF_o5RqIMrdFD3GeigL-37" edge="1">
          <mxGeometry width="50" height="50" relative="1" as="geometry">
            <mxPoint x="950" y="339" as="sourcePoint" />
            <mxPoint x="1240" y="339" as="targetPoint" />
          </mxGeometry>
        </mxCell>
        <mxCell id="PMF_o5RqIMrdFD3GeigL-33" value="" style="group;fontSize=7;fontStyle=1" parent="1" vertex="1" connectable="0">
          <mxGeometry x="970" y="320" width="10" height="25" as="geometry" />
        </mxCell>
        <mxCell id="PMF_o5RqIMrdFD3GeigL-34" value="" style="endArrow=none;html=1;rounded=0;fontSize=7;fontStyle=1" parent="PMF_o5RqIMrdFD3GeigL-33" edge="1">
          <mxGeometry width="50" height="50" relative="1" as="geometry">
            <mxPoint y="25" as="sourcePoint" />
            <mxPoint x="10" y="15" as="targetPoint" />
          </mxGeometry>
        </mxCell>
        <mxCell id="PMF_o5RqIMrdFD3GeigL-35" value="&lt;font&gt;32&lt;/font&gt;" style="text;html=1;align=center;verticalAlign=middle;whiteSpace=wrap;rounded=0;fontSize=7;fontStyle=1" parent="PMF_o5RqIMrdFD3GeigL-33" vertex="1">
          <mxGeometry width="10" height="17.5" as="geometry" />
        </mxCell>
        <mxCell id="PMF_o5RqIMrdFD3GeigL-36" value="result" style="text;whiteSpace=wrap;verticalAlign=middle;fontSize=7;fontStyle=1" parent="1" vertex="1">
          <mxGeometry x="990" y="320" width="30" height="20" as="geometry" />
        </mxCell>
        <mxCell id="PMF_o5RqIMrdFD3GeigL-37" value="" style="rounded=0;whiteSpace=wrap;html=1;direction=south;fontSize=7;fontStyle=1" parent="1" vertex="1">
          <mxGeometry x="1240" y="248" width="50" height="182.5" as="geometry" />
        </mxCell>
        <mxCell id="PMF_o5RqIMrdFD3GeigL-38" value="" style="triangle;whiteSpace=wrap;html=1;fontSize=7;fontStyle=1" parent="1" vertex="1">
          <mxGeometry x="1240" y="410" width="10" height="20" as="geometry" />
        </mxCell>
        <mxCell id="PMF_o5RqIMrdFD3GeigL-40" value="mem_rd" style="text;align=center;verticalAlign=middle;whiteSpace=wrap;rounded=0;fontSize=7;fontStyle=1" parent="1" vertex="1">
          <mxGeometry x="1156" y="317.5" width="50" height="30" as="geometry" />
        </mxCell>
        <mxCell id="PMF_o5RqIMrdFD3GeigL-41" value="" style="group;fontSize=7;fontStyle=1" parent="1" vertex="1" connectable="0">
          <mxGeometry x="665" y="230" width="20" height="70" as="geometry" />
        </mxCell>
        <mxCell id="PMF_o5RqIMrdFD3GeigL-42" value="" style="shape=trapezoid;perimeter=trapezoidPerimeter;whiteSpace=wrap;html=1;fixedSize=1;direction=south;fontSize=7;fontStyle=1" parent="PMF_o5RqIMrdFD3GeigL-41" vertex="1">
          <mxGeometry width="20" height="70" as="geometry" />
        </mxCell>
        <mxCell id="PMF_o5RqIMrdFD3GeigL-43" value="1" style="text;html=1;align=center;verticalAlign=middle;whiteSpace=wrap;rounded=0;fontSize=7;fontStyle=1" parent="PMF_o5RqIMrdFD3GeigL-41" vertex="1">
          <mxGeometry y="20" width="20" height="10" as="geometry" />
        </mxCell>
        <mxCell id="PMF_o5RqIMrdFD3GeigL-44" value="0" style="text;html=1;align=center;verticalAlign=middle;whiteSpace=wrap;rounded=0;fontSize=7;fontStyle=1" parent="PMF_o5RqIMrdFD3GeigL-41" vertex="1">
          <mxGeometry x="5" y="35" width="10" height="20" as="geometry" />
        </mxCell>
        <mxCell id="PMF_o5RqIMrdFD3GeigL-46" value="" style="endArrow=classic;html=1;rounded=0;strokeWidth=1;startSize=6;opacity=70;jumpSize=1;strokeColor=default;shadow=1;entryX=0.25;entryY=1;entryDx=0;entryDy=0;fontSize=7;fontStyle=1" parent="1" target="PMF_o5RqIMrdFD3GeigL-42" edge="1">
          <mxGeometry width="50" height="50" relative="1" as="geometry">
            <mxPoint x="610" y="75" as="sourcePoint" />
            <mxPoint x="660" y="218.75" as="targetPoint" />
            <Array as="points">
              <mxPoint x="610" y="248" />
            </Array>
          </mxGeometry>
        </mxCell>
        <mxCell id="PMF_o5RqIMrdFD3GeigL-47" value="" style="curved=0;endArrow=classic;html=1;rounded=0;entryX=0.641;entryY=0.965;entryDx=0;entryDy=0;entryPerimeter=0;fontSize=7;fontStyle=1" parent="1" edge="1">
          <mxGeometry width="50" height="50" relative="1" as="geometry">
            <mxPoint x="610" y="345" as="sourcePoint" />
            <mxPoint x="665.7" y="274.93" as="targetPoint" />
            <Array as="points">
              <mxPoint x="610" y="275.06" />
            </Array>
          </mxGeometry>
        </mxCell>
        <mxCell id="PMF_o5RqIMrdFD3GeigL-49" value="" style="endArrow=classic;html=1;rounded=0;strokeWidth=1;startSize=6;opacity=70;jumpSize=1;strokeColor=default;shadow=1;entryX=0.25;entryY=1;entryDx=0;entryDy=0;exitX=0.5;exitY=0;exitDx=0;exitDy=0;fontSize=7;fontStyle=1" parent="1" source="PMF_o5RqIMrdFD3GeigL-42" target="PMF_o5RqIMrdFD3GeigL-37" edge="1">
          <mxGeometry width="50" height="50" relative="1" as="geometry">
            <mxPoint x="680" y="234.66" as="sourcePoint" />
            <mxPoint x="710" y="234.66" as="targetPoint" />
            <Array as="points">
              <mxPoint x="807" y="267" />
              <mxPoint x="807" y="290" />
            </Array>
          </mxGeometry>
        </mxCell>
        <mxCell id="PMF_o5RqIMrdFD3GeigL-51" value="" style="group;fontSize=7;fontStyle=1" parent="1" vertex="1" connectable="0">
          <mxGeometry x="1217" y="268.75" width="10" height="25" as="geometry" />
        </mxCell>
        <mxCell id="PMF_o5RqIMrdFD3GeigL-52" value="" style="endArrow=none;html=1;rounded=0;fontSize=7;fontStyle=1" parent="PMF_o5RqIMrdFD3GeigL-51" edge="1">
          <mxGeometry width="50" height="50" relative="1" as="geometry">
            <mxPoint x="-10" y="40" as="sourcePoint" />
            <mxPoint x="10" y="15" as="targetPoint" />
          </mxGeometry>
        </mxCell>
        <mxCell id="PMF_o5RqIMrdFD3GeigL-53" value="&lt;font&gt;32&lt;/font&gt;" style="text;html=1;align=center;verticalAlign=middle;whiteSpace=wrap;rounded=0;fontSize=7;fontStyle=1" parent="PMF_o5RqIMrdFD3GeigL-51" vertex="1">
          <mxGeometry width="10" height="17.5" as="geometry" />
        </mxCell>
        <mxCell id="PMF_o5RqIMrdFD3GeigL-64" value="" style="endArrow=classic;html=1;rounded=0;strokeWidth=1;startSize=6;opacity=70;jumpSize=1;strokeColor=default;shadow=1;fontSize=7;fontStyle=1;entryX=0.401;entryY=1.084;entryDx=0;entryDy=0;entryPerimeter=0;" parent="1" target="udzb2MHEnxLIqmoWjG_3-24" edge="1">
          <mxGeometry width="50" height="50" relative="1" as="geometry">
            <mxPoint x="1290" y="260" as="sourcePoint" />
            <mxPoint x="1098" y="228" as="targetPoint" />
            <Array as="points">
              <mxPoint x="1371" y="260" />
              <mxPoint x="1371" y="242" />
            </Array>
          </mxGeometry>
        </mxCell>
        <mxCell id="PMF_o5RqIMrdFD3GeigL-65" value="mem_write_data" style="text;whiteSpace=wrap;verticalAlign=middle;align=center;fontSize=7;fontStyle=1" parent="1" vertex="1">
          <mxGeometry x="1126" y="280" width="80" height="10" as="geometry" />
        </mxCell>
        <mxCell id="PMF_o5RqIMrdFD3GeigL-68" value="mem_read_data" style="text;whiteSpace=wrap;align=center;verticalAlign=middle;fontSize=7;fontStyle=1" parent="1" vertex="1">
          <mxGeometry x="1290" y="250" width="90" height="10" as="geometry" />
        </mxCell>
        <mxCell id="PMF_o5RqIMrdFD3GeigL-72" value="" style="endArrow=classic;html=1;rounded=0;strokeWidth=1;startSize=6;opacity=70;jumpSize=1;strokeColor=default;shadow=1;fontSize=7;fontStyle=1;entryX=0.347;entryY=0.934;entryDx=0;entryDy=0;entryPerimeter=0;" parent="1" edge="1" target="udzb2MHEnxLIqmoWjG_3-4">
          <mxGeometry width="50" height="50" relative="1" as="geometry">
            <mxPoint x="1138" y="338" as="sourcePoint" />
            <mxPoint x="1249" y="117" as="targetPoint" />
            <Array as="points">
              <mxPoint x="1138" y="530" />
              <mxPoint x="1393" y="532" />
              <mxPoint x="1399" y="70" />
              <mxPoint x="1249" y="70" />
            </Array>
          </mxGeometry>
        </mxCell>
        <mxCell id="PMF_o5RqIMrdFD3GeigL-76" value="" style="endArrow=classic;html=1;rounded=0;strokeWidth=1;startSize=6;opacity=70;jumpSize=1;strokeColor=default;shadow=1;entryX=1;entryY=0.5;entryDx=0;entryDy=0;exitX=0.772;exitY=0.002;exitDx=0;exitDy=0;exitPerimeter=0;fontSize=7;fontStyle=1" parent="1" source="kGD7HWYmtsc1gqsiC4Fo-77" target="PMF_o5RqIMrdFD3GeigL-42" edge="1">
          <mxGeometry width="50" height="50" relative="1" as="geometry">
            <mxPoint x="540" y="720" as="sourcePoint" />
            <mxPoint x="570" y="720" as="targetPoint" />
            <Array as="points">
              <mxPoint x="640" y="690" />
              <mxPoint x="640" y="360" />
              <mxPoint x="675" y="360" />
            </Array>
          </mxGeometry>
        </mxCell>
        <mxCell id="PMF_o5RqIMrdFD3GeigL-77" value="" style="endArrow=classic;html=1;rounded=0;strokeWidth=1;startSize=6;opacity=70;jumpSize=1;strokeColor=default;shadow=1;exitX=0.853;exitY=-0.02;exitDx=0;exitDy=0;exitPerimeter=0;fontSize=7;fontStyle=1;entryX=0;entryY=0.5;entryDx=0;entryDy=0;" parent="1" source="kGD7HWYmtsc1gqsiC4Fo-77" target="udzb2MHEnxLIqmoWjG_3-24" edge="1">
          <mxGeometry width="50" height="50" relative="1" as="geometry">
            <mxPoint x="540" y="740" as="sourcePoint" />
            <mxPoint x="1090" y="226" as="targetPoint" />
            <Array as="points">
              <mxPoint x="1101" y="708" />
            </Array>
          </mxGeometry>
        </mxCell>
        <mxCell id="PMF_o5RqIMrdFD3GeigL-81" value="" style="endArrow=classic;html=1;rounded=0;strokeWidth=1;startSize=6;opacity=70;jumpSize=1;strokeColor=default;shadow=1;exitX=0.94;exitY=0.002;exitDx=0;exitDy=0;exitPerimeter=0;entryX=0.816;entryY=1.01;entryDx=0;entryDy=0;entryPerimeter=0;fontSize=7;fontStyle=1" parent="1" source="kGD7HWYmtsc1gqsiC4Fo-77" target="PMF_o5RqIMrdFD3GeigL-37" edge="1">
          <mxGeometry width="50" height="50" relative="1" as="geometry">
            <mxPoint x="710" y="740" as="sourcePoint" />
            <mxPoint x="1280" y="730" as="targetPoint" />
            <Array as="points">
              <mxPoint x="1120" y="730" />
              <mxPoint x="1120" y="397" />
            </Array>
          </mxGeometry>
        </mxCell>
        <mxCell id="PMF_o5RqIMrdFD3GeigL-82" value="data_mem_enable" style="text;whiteSpace=wrap;align=center;verticalAlign=middle;fontSize=7;fontStyle=1" parent="1" vertex="1">
          <mxGeometry x="1137" y="382.5" width="90" height="20" as="geometry" />
        </mxCell>
        <mxCell id="PMF_o5RqIMrdFD3GeigL-83" value="rs2_sel" style="text;whiteSpace=wrap;verticalAlign=middle;align=center;fontSize=7;fontStyle=1" parent="1" vertex="1">
          <mxGeometry x="545" y="680" width="40" height="10" as="geometry" />
        </mxCell>
        <mxCell id="PMF_o5RqIMrdFD3GeigL-84" value="data_mem_enable" style="text;whiteSpace=wrap;align=center;verticalAlign=middle;fontSize=7;fontStyle=1" parent="1" vertex="1">
          <mxGeometry x="550" y="710" width="50" height="20" as="geometry" />
        </mxCell>
        <mxCell id="PMF_o5RqIMrdFD3GeigL-85" value="data_memory" style="text;html=1;align=center;verticalAlign=middle;whiteSpace=wrap;rounded=0;fontSize=7;fontStyle=1" parent="1" vertex="1">
          <mxGeometry x="1240" y="430" width="60" height="20" as="geometry" />
        </mxCell>
        <mxCell id="PMF_o5RqIMrdFD3GeigL-87" value="write_back_sel" style="text;html=1;align=center;verticalAlign=middle;resizable=0;points=[];autosize=1;strokeColor=none;fillColor=none;fontSize=7;fontStyle=1" parent="1" vertex="1">
          <mxGeometry x="540" y="695" width="64" height="20" as="geometry" />
        </mxCell>
        <mxCell id="udzb2MHEnxLIqmoWjG_3-1" value="" style="endArrow=classic;html=1;rounded=0;strokeWidth=1;startSize=6;opacity=70;jumpSize=1;strokeColor=default;shadow=1;fontSize=7;fontStyle=1" edge="1" parent="1">
          <mxGeometry width="50" height="50" relative="1" as="geometry">
            <mxPoint x="950" y="65" as="sourcePoint" />
            <mxPoint x="1218" y="121" as="targetPoint" />
            <Array as="points">
              <mxPoint x="1218" y="68" />
            </Array>
          </mxGeometry>
        </mxCell>
        <mxCell id="udzb2MHEnxLIqmoWjG_3-14" value="" style="endArrow=classic;html=1;rounded=0;strokeWidth=1;startSize=6;opacity=70;jumpSize=1;strokeColor=default;shadow=1;exitX=0.5;exitY=0;exitDx=0;exitDy=0;entryX=0.658;entryY=1.033;entryDx=0;entryDy=0;entryPerimeter=0;fontSize=7;fontStyle=1" edge="1" parent="1" source="udzb2MHEnxLIqmoWjG_3-4" target="udzb2MHEnxLIqmoWjG_3-24">
          <mxGeometry width="50" height="50" relative="1" as="geometry">
            <mxPoint x="1493" y="229" as="sourcePoint" />
            <mxPoint x="1103" y="186" as="targetPoint" />
            <Array as="points">
              <mxPoint x="1237" y="215" />
            </Array>
          </mxGeometry>
        </mxCell>
        <mxCell id="udzb2MHEnxLIqmoWjG_3-27" value="" style="group;fontSize=7;fontStyle=1" vertex="1" connectable="0" parent="1">
          <mxGeometry x="1097" y="184" width="20" height="96" as="geometry" />
        </mxCell>
        <mxCell id="udzb2MHEnxLIqmoWjG_3-24" value="" style="shape=trapezoid;perimeter=trapezoidPerimeter;whiteSpace=wrap;html=1;fixedSize=1;direction=north;container=0;fontSize=7;fontStyle=1" vertex="1" parent="udzb2MHEnxLIqmoWjG_3-27">
          <mxGeometry width="20" height="96" as="geometry" />
        </mxCell>
        <mxCell id="udzb2MHEnxLIqmoWjG_3-26" value="1" style="text;html=1;align=center;verticalAlign=middle;whiteSpace=wrap;rounded=0;direction=west;container=0;fontSize=7;fontStyle=1" vertex="1" parent="udzb2MHEnxLIqmoWjG_3-27">
          <mxGeometry x="5" y="46" width="10" height="27.42857142857143" as="geometry" />
        </mxCell>
        <mxCell id="udzb2MHEnxLIqmoWjG_3-25" value="0" style="text;html=1;align=center;verticalAlign=middle;whiteSpace=wrap;rounded=0;direction=west;container=0;fontSize=7;fontStyle=1" vertex="1" parent="udzb2MHEnxLIqmoWjG_3-27">
          <mxGeometry y="24.998571428571466" width="20" height="13.714285714285715" as="geometry" />
        </mxCell>
        <mxCell id="udzb2MHEnxLIqmoWjG_3-31" value="" style="endArrow=classic;html=1;rounded=0;strokeWidth=1;startSize=6;opacity=70;jumpSize=1;strokeColor=default;shadow=1;entryX=1;entryY=0.5;entryDx=0;entryDy=0;fontSize=7;fontStyle=1" edge="1" parent="1" target="udzb2MHEnxLIqmoWjG_3-4">
          <mxGeometry width="50" height="50" relative="1" as="geometry">
            <mxPoint x="800" y="205" as="sourcePoint" />
            <mxPoint x="1106" y="193" as="targetPoint" />
            <Array as="points">
              <mxPoint x="975" y="205" />
              <mxPoint x="975" y="130" />
            </Array>
          </mxGeometry>
        </mxCell>
        <mxCell id="udzb2MHEnxLIqmoWjG_3-33" value="" style="group;fontSize=7;fontStyle=1" vertex="1" connectable="0" parent="1">
          <mxGeometry x="1196" y="120" width="81.88679245283015" height="20" as="geometry" />
        </mxCell>
        <mxCell id="udzb2MHEnxLIqmoWjG_3-6" value="1" style="text;html=1;align=center;verticalAlign=middle;whiteSpace=wrap;rounded=0;direction=west;container=0;fontSize=7;fontStyle=1" vertex="1" parent="udzb2MHEnxLIqmoWjG_3-33">
          <mxGeometry x="50.30188679245293" width="11.698113207547168" height="20" as="geometry" />
        </mxCell>
        <mxCell id="udzb2MHEnxLIqmoWjG_3-4" value="" style="shape=trapezoid;perimeter=trapezoidPerimeter;whiteSpace=wrap;html=1;fixedSize=1;direction=west;container=0;fontSize=7;fontStyle=1" vertex="1" parent="udzb2MHEnxLIqmoWjG_3-33">
          <mxGeometry width="81.88679245283018" height="20" as="geometry" />
        </mxCell>
        <mxCell id="udzb2MHEnxLIqmoWjG_3-12" value="1" style="text;html=1;align=center;verticalAlign=middle;whiteSpace=wrap;rounded=0;direction=west;container=0;fontSize=7;fontStyle=1" vertex="1" parent="udzb2MHEnxLIqmoWjG_3-33">
          <mxGeometry x="11.997924528301837" y="5" width="23.396226415094336" height="10" as="geometry" />
        </mxCell>
        <mxCell id="udzb2MHEnxLIqmoWjG_3-5" value="0" style="text;html=1;align=center;verticalAlign=middle;whiteSpace=wrap;rounded=0;direction=west;container=0;fontSize=7;fontStyle=1" vertex="1" parent="udzb2MHEnxLIqmoWjG_3-33">
          <mxGeometry x="41.997924528302065" y="5" width="23.396226415094336" height="10" as="geometry" />
        </mxCell>
        <mxCell id="udzb2MHEnxLIqmoWjG_3-34" value="registerfile_data" style="text;html=1;align=center;verticalAlign=middle;whiteSpace=wrap;rounded=0;fontSize=7;fontStyle=1" vertex="1" parent="1">
          <mxGeometry x="1146" y="190" width="60" height="30" as="geometry" />
        </mxCell>
        <mxCell id="udzb2MHEnxLIqmoWjG_3-35" value="" style="group;fontSize=7;fontStyle=1" vertex="1" connectable="0" parent="1">
          <mxGeometry x="1311" y="214" width="10" height="25" as="geometry" />
        </mxCell>
        <mxCell id="udzb2MHEnxLIqmoWjG_3-36" value="" style="endArrow=none;html=1;rounded=0;fontSize=7;fontStyle=1" edge="1" parent="udzb2MHEnxLIqmoWjG_3-35">
          <mxGeometry width="50" height="50" relative="1" as="geometry">
            <mxPoint x="-10" y="40" as="sourcePoint" />
            <mxPoint x="10" y="15" as="targetPoint" />
          </mxGeometry>
        </mxCell>
        <mxCell id="udzb2MHEnxLIqmoWjG_3-37" value="&lt;font&gt;32&lt;/font&gt;" style="text;html=1;align=center;verticalAlign=middle;whiteSpace=wrap;rounded=0;fontSize=7;fontStyle=1" vertex="1" parent="udzb2MHEnxLIqmoWjG_3-35">
          <mxGeometry width="10" height="17.5" as="geometry" />
        </mxCell>
        <mxCell id="udzb2MHEnxLIqmoWjG_3-41" value="" style="group" vertex="1" connectable="0" parent="1">
          <mxGeometry x="1227" y="170" width="20" height="40" as="geometry" />
        </mxCell>
        <mxCell id="udzb2MHEnxLIqmoWjG_3-39" value="" style="endArrow=none;html=1;rounded=0;fontSize=7;fontStyle=1" edge="1" parent="udzb2MHEnxLIqmoWjG_3-41">
          <mxGeometry width="50" height="50" relative="1" as="geometry">
            <mxPoint y="40" as="sourcePoint" />
            <mxPoint x="20" y="15" as="targetPoint" />
          </mxGeometry>
        </mxCell>
        <mxCell id="udzb2MHEnxLIqmoWjG_3-40" value="&lt;font&gt;32&lt;/font&gt;" style="text;html=1;align=center;verticalAlign=middle;whiteSpace=wrap;rounded=0;fontSize=7;fontStyle=1;container=0;" vertex="1" parent="udzb2MHEnxLIqmoWjG_3-41">
          <mxGeometry x="10" width="10" height="17.5" as="geometry" />
        </mxCell>
      </root>
    </mxGraphModel>
  </diagram>
</mxfile>
